<svg width="97" height="34" viewBox="0 0 97 34" fill="none" xmlns="http://www.w3.org/2000/svg">
<path d="M28.9981 7.02412C29.1438 7.12151 29.2871 7.2264 29.4303 7.32629L30.0207 6.88427C30.4085 6.60957 30.7987 6.33737 31.1915 6.07266C30.8204 5.8632 30.4668 5.6235 30.1343 5.35594L30.0627 5.29102C29.5463 5.79398 28.9922 6.25569 28.4053 6.672C28.6078 6.78688 28.8029 6.90425 28.9981 7.02412Z" fill="#FF9143"/>
<path d="M34.994 1.41334C34.4259 0.836468 33.9196 0.569261 33.4552 0.586742C32.5611 0.621704 31.8052 1.58565 31.2643 2.20996C30.3109 3.29627 29.4785 4.42004 28.1496 5.05934C27.5377 5.34338 26.9072 5.58452 26.2625 5.78105C26.7248 5.89336 27.1743 6.05405 27.6037 6.26053C28.3499 5.83624 29.1308 5.4778 29.9379 5.1892C29.6604 4.95813 29.4116 4.694 29.1969 4.40256C30.0468 4.57071 30.8637 4.87863 31.615 5.31406L32.0053 5.54381C32.1461 5.45391 32.2844 5.35901 32.4277 5.26911C33.2455 4.74811 34.0934 4.27695 34.9669 3.85816C34.2855 4.55824 33.5638 5.217 32.8056 5.831L32.6401 5.96085L32.6895 5.99332C33.0519 6.24329 33.3872 6.53123 33.6899 6.85238C33.2441 6.83809 32.8033 6.75385 32.3832 6.60265C32.2597 6.5627 32.1362 6.51025 32.0177 6.46031C31.5236 6.84988 31.0214 7.2303 30.5109 7.60156C30.385 7.69396 30.2639 7.78136 30.1256 7.87126C30.1553 7.89623 30.1898 7.91871 30.2195 7.94618C30.6217 8.28214 30.9795 8.66907 31.2841 9.09742C30.6584 8.90018 30.0543 8.63912 29.4809 8.31827C28.8363 8.75779 28.1768 9.17483 27.5049 9.5669C27.8699 9.95786 28.1829 10.3952 28.4361 10.868C27.9584 10.6457 27.4998 10.3834 27.0653 10.0838C26.9936 10.0364 26.9269 9.98395 26.8578 9.9365C26.4329 10.1862 26.0032 10.3985 25.561 10.6133C25.8698 10.2936 26.1884 9.98894 26.512 9.69177C26.2798 9.51946 26.0526 9.34465 25.8253 9.16235C25.5981 8.98005 25.3881 8.78526 25.1732 8.59047C24.6442 8.85215 24.0959 9.07174 23.5331 9.24725C23.9037 8.85738 24.3025 8.49594 24.7262 8.16594C24.3334 7.77918 23.9762 7.35706 23.6591 6.90482C24.162 7.07409 24.6436 7.30205 25.0942 7.58408C25.1658 7.62653 25.23 7.67647 25.3017 7.72143C25.7512 7.38679 26.2131 7.07463 26.6824 6.77496L27.0085 6.58517C26.7261 6.33502 26.4619 6.06462 26.2181 5.77606C25.277 6.08072 24.3211 6.34793 23.4096 6.70754C22.3618 7.14519 21.3673 7.70325 20.4456 8.37071C17.727 10.3003 16.2005 13.5217 15.8662 18.0351C16.1402 17.1823 16.548 16.3796 17.074 15.6577C17.579 14.9642 18.1893 14.3557 18.8821 13.8547C19.7055 13.2711 20.6258 12.8414 21.5991 12.5861C23.6739 12.0167 25.8599 11.8944 27.8878 11.1801C29.7922 10.5084 31.5039 9.3871 33.06 8.106C34.6161 6.82491 35.5868 5.14175 35.6659 3.5435C35.7029 2.66197 35.4633 1.88032 34.994 1.41334Z" fill="#FF9143"/>
<path d="M25.9834 8.20184C26.1168 8.30173 26.2526 8.40162 26.3811 8.50401C26.6281 8.72127 26.8751 8.94602 27.1221 9.18076C27.6441 8.72959 28.176 8.2934 28.7177 7.8722L28.5349 7.75982C28.2533 7.57253 27.9767 7.37274 27.705 7.16797C27.5197 7.29283 27.337 7.4177 27.1492 7.53507C26.7656 7.76814 26.377 7.9904 25.9834 8.20184Z" fill="#FF9143"/>
<path d="M8.10315 21.4839H2.62959L3.99798 20.8496V18.1176H13.7274V14.4766H-0.000976562V33.3384H8.10315C11.7785 33.3384 15.2464 32.0898 15.2464 27.4074C15.2464 22.725 11.7785 21.4839 8.10315 21.4839ZM8.12785 29.7798H2.62959L3.45705 29.4027C4.54879 28.1541 4.54879 26.6557 3.45705 25.4071L2.63453 25.03H8.12785C9.69878 25.03 11.1684 25.3771 11.1684 27.3974C11.1684 29.4177 9.69878 29.7798 8.12785 29.7798Z" fill="#FF9143"/>
<path d="M26.859 14.0996C20.2517 14.0996 16.9443 18.792 16.9443 23.9064C16.9443 29.0208 20.2517 33.7131 26.859 33.7131C33.4663 33.7131 36.7736 29.0208 36.7736 23.9064C36.7736 18.792 33.4687 14.0996 26.859 14.0996ZM27.4641 29.9447L26.8639 31.2808L26.2662 29.9447C22.7637 29.6725 21.0199 27.0579 21.0199 23.9064C21.0199 20.7548 22.7637 18.1427 26.2514 17.868L26.8491 16.5344L27.4493 17.868C30.9073 18.1427 32.6512 20.7723 32.6512 23.9064C32.6512 27.0404 30.9222 29.6725 27.4641 29.9447Z" fill="#FF9143"/>
<path d="M47.8276 21.4839H42.2528L43.72 20.8146V18.1176H53.4519V14.4766H39.7334V33.3384H47.8276C51.508 33.3384 54.9709 32.0898 54.9709 27.4074C54.9709 22.725 51.508 21.4839 47.8276 21.4839ZM47.8573 29.7798H42.2528L43.2532 29.3203C44.2412 28.1191 44.2412 26.6957 43.2532 25.4945L42.2528 25.04H47.8573C49.4332 25.04 50.8979 25.3871 50.8979 27.4074C50.8979 29.4277 49.4332 29.7798 47.8573 29.7798Z" fill="#FF9143"/>
<path d="M64.747 14.4766H57.71V33.3384H61.7139V27.807L60.2319 27.1277H64.7396C69.2499 27.1277 72.7894 25.6718 72.7894 20.7996C72.7894 15.9275 69.2573 14.4766 64.747 14.4766ZM64.9323 23.5866H60.2393L61.1976 23.1396C62.2894 21.6412 62.2894 19.968 61.1976 18.4822L60.2393 18.0352H64.9323C66.9923 18.0352 68.7213 18.5746 68.7213 20.8071C68.7213 23.0397 66.9923 23.5866 64.9323 23.5866Z" fill="#FF9143"/>
<path d="M82.5205 20.6798L78.0127 20.6648L79.4947 19.983V14.4766H75.4834V33.3384H82.5205C87.0233 33.3384 90.5678 31.8825 90.5678 27.0053C90.5678 22.1282 87.0233 20.6997 82.5205 20.6798ZM82.7033 29.7798H78.0102L78.9686 29.3303C80.0603 27.8469 80.0603 26.1663 78.9686 24.6754L78.0102 24.2259H82.7033C84.7583 24.2259 86.4923 24.7978 86.4923 27.0053C86.4923 29.2129 84.7583 29.7798 82.7033 29.7798Z" fill="#FF9143"/>
<path d="M96.0814 14.4766H92.085V33.3359H96.0814V14.4766Z" fill="#FF9143"/>
</svg>
