<svg width="40" height="40" viewBox="0 0 40 40" fill="none" xmlns="http://www.w3.org/2000/svg">
<path d="M17.4587 0.10548C8.38954 1.29283 1.23422 8.46378 0.117172 17.486C-0.0390575 18.7593 -0.0390575 21.2121 0.117172 22.4854C0.882699 28.6799 4.57753 34.2183 10.0378 37.3663C12.1 38.5536 14.2872 39.3348 16.7478 39.7644C18.107 39.9988 20.9895 40.0535 22.4268 39.866C31.0351 38.788 37.9248 32.406 39.6433 23.9305C40.0105 22.1339 40.1042 19.3686 39.8777 17.486C38.7528 8.43253 31.5819 1.26158 22.4737 0.10548C21.341 -0.0351257 18.5679 -0.0351257 17.4587 0.10548ZM22.1534 2.8395C24.8796 3.19883 27.3637 4.1284 29.6056 5.63602C31.5897 6.97178 33.3941 8.85435 34.7143 10.9556C37.1202 14.7911 37.8779 19.7123 36.7531 24.1649C35.9719 27.266 34.4799 29.8907 32.1912 32.1795C30.7538 33.609 29.4259 34.5776 27.6839 35.4447C23.1455 37.71 17.8805 37.8662 13.217 35.8743C11.1626 34.9916 9.45972 33.8277 7.80368 32.1795C6.37418 30.7422 5.40555 29.4142 4.53848 27.6722C2.27314 23.1338 2.11691 17.8688 4.10884 13.2054C4.99154 11.1509 6.15546 9.44803 7.80368 7.79199C10.5689 5.03453 13.9201 3.37069 17.7711 2.84732C18.8569 2.6989 21.0363 2.6989 22.1534 2.8395Z" fill="white"/>
<path d="M19.4061 8.07412C19.0859 8.24597 18.9062 8.41782 18.75 8.69904C18.6406 8.90995 18.625 9.488 18.625 14.6358V20.3382L18.8047 20.6506C18.9375 20.8772 19.953 21.7286 22.5073 23.7674C25.3976 26.0796 26.0772 26.5874 26.3662 26.6498C27.2098 26.8451 28.03 26.1733 28.0378 25.2906C28.0378 24.6814 27.866 24.5095 24.5461 21.8614L21.4059 19.3539L21.3825 14.1436C21.359 8.3319 21.3903 8.66779 20.8044 8.22254C20.4529 7.94913 19.7655 7.87883 19.4061 8.07412Z" fill="white"/>
</svg>
