<svg width="36" height="37" viewBox="0 0 36 37" fill="none" xmlns="http://www.w3.org/2000/svg">
<g clip-path="url(#clip0_207_421)">
<path d="M28.4194 15.4611H33.8606C33.6034 12.0154 32.1017 8.91937 29.808 6.61537C27.5143 4.31137 24.4183 2.80966 20.9829 2.55251V8.00394H21.0137H21.024L21.0651 8.01423L21.1269 8.02451C21.1989 8.0348 21.2709 8.04509 21.3326 8.05537C21.5074 8.08623 21.6823 8.11709 21.8571 8.15823H21.8674L21.96 8.1788H21.9703C22.0731 8.19937 22.1657 8.23023 22.2686 8.26109H22.2789L22.3097 8.27137L22.3817 8.29194L22.4023 8.30223L22.4846 8.3228L22.5669 8.35366H22.5771L22.6491 8.37423L22.68 8.38451H22.6903C22.7829 8.41537 22.8857 8.44623 22.9783 8.48737H22.9886L23.0709 8.51823C23.1634 8.55937 23.2663 8.60051 23.3589 8.64166L23.4 8.66223L23.4617 8.69309L23.5543 8.73423H23.5646L23.6469 8.77537H23.6571C23.7806 8.83709 23.8937 8.8988 24.0171 8.96051L24.0274 8.9708L24.048 8.98109L24.12 9.02223L24.192 9.06337L24.2023 9.07366L24.264 9.1148L24.2846 9.12509C24.3771 9.17651 24.4594 9.22794 24.5417 9.28966L24.552 9.29994C24.7166 9.41309 24.8914 9.52623 25.0457 9.63937L25.056 9.64966L25.128 9.70109L25.1897 9.75251L25.2103 9.7628C25.2926 9.82451 25.3646 9.88623 25.4469 9.95823L25.4571 9.96851L25.5189 10.0199C25.6423 10.1331 25.776 10.2462 25.8891 10.3697L25.8994 10.3799L25.9611 10.4417L26.0229 10.5034L26.0331 10.5137C26.1257 10.6165 26.2183 10.7091 26.3109 10.8119L26.3211 10.8222L26.3829 10.8839L26.4343 10.9457L26.4446 10.9662L26.4857 11.0177L26.5063 11.0485L26.5166 11.0588C26.5577 11.1102 26.5886 11.1514 26.6297 11.2028L26.64 11.2131L26.6503 11.2337L26.7017 11.2954L26.7531 11.3674L26.7634 11.3777L26.8046 11.4394L26.8149 11.4599L26.856 11.5114L26.8766 11.5422L26.9383 11.6245L26.9589 11.6554L27 11.7171L27.0103 11.7274L27.0617 11.7994L27.1131 11.8714L27.1234 11.8817L27.1749 11.9639L27.2057 12.0154L27.2263 12.0565L27.2469 12.0977L27.2777 12.1491L27.288 12.1697L27.3291 12.2314L27.3394 12.2417L27.3806 12.3137L27.4217 12.3857L27.432 12.4062L27.4629 12.4679L27.4834 12.4988L27.504 12.5502L27.5246 12.5914L27.5451 12.6222L27.576 12.6839L27.5863 12.7045L27.6171 12.7765L27.6583 12.8588V12.8691L27.6891 12.9411L27.6994 12.9617L27.7097 12.9822L27.7406 13.0542L27.7714 13.1262L27.7817 13.1468L27.792 13.1777L27.8229 13.2394L27.8331 13.2599L27.864 13.3422L27.8949 13.4245V13.4348L27.936 13.5377L27.9566 13.5891L27.9669 13.6302L27.9977 13.7228V13.7331L28.008 13.7639L28.0286 13.8359V13.8462L28.0594 13.9285L28.0697 13.9491L28.0903 14.0314L28.1109 14.1034L28.1211 14.1342L28.1314 14.1857L28.1417 14.2371L28.152 14.2782L28.1726 14.3399L28.1829 14.3605L28.2034 14.4428V14.4531L28.224 14.5457V14.5559L28.2446 14.6382L28.2549 14.6588L28.2651 14.7205L28.2754 14.7617V14.7822C28.2857 14.8439 28.296 14.9057 28.3063 14.9674V14.9777V14.9982L28.3166 15.0805L28.3269 15.1731V15.1834L28.3371 15.2657V15.2965L28.3474 15.3582L28.4194 15.4611ZM18.72 17.5594C18.5246 17.3639 18.2366 17.2405 17.928 17.2405C17.64 17.2405 17.3726 17.3639 17.1771 17.5697C16.9817 17.7651 16.8583 18.0531 16.8583 18.3617C16.8583 18.6805 16.9817 18.9582 17.1771 19.1537C17.3726 19.3594 17.64 19.4828 17.928 19.4828C18.2366 19.4828 18.5143 19.3594 18.72 19.1639C18.9154 18.9685 19.0389 18.6805 19.0389 18.3719C19.0389 18.0839 18.936 17.8165 18.7611 17.6211C18.7509 17.5799 18.7303 17.5697 18.72 17.5594ZM9.03086 11.6142C9.06171 11.5628 9.09257 11.5217 9.13371 11.4702L9.144 11.4497L9.16457 11.4291L9.20571 11.3674L9.216 11.3571L9.26743 11.2851L9.32914 11.2028L9.37029 11.1514L9.39086 11.1205C9.45257 11.0382 9.52457 10.9662 9.58629 10.8839L9.648 10.8222L9.65829 10.8119C9.77143 10.6885 9.89486 10.5548 10.008 10.4417L10.08 10.3697L10.1314 10.3182L10.152 10.2977C10.224 10.2257 10.3063 10.1537 10.3783 10.0919L10.3886 10.0817C10.44 10.0405 10.4914 9.99937 10.5326 9.95823L10.584 9.91709L10.6149 9.89651C10.6663 9.85537 10.7177 9.81423 10.7794 9.7628L10.8 9.75251L10.8617 9.70109L10.944 9.63937L11.0057 9.58794L11.0263 9.57766L11.1086 9.51594L11.1497 9.48509L11.1909 9.45423L11.2217 9.43366L11.2834 9.39252L11.3657 9.3308L11.4377 9.27937L11.448 9.26909C11.5303 9.21766 11.6229 9.15594 11.7154 9.10451L11.736 9.09423L11.7977 9.05309L11.808 9.0428L11.88 9.00166L11.952 8.96051L11.9726 8.95023L12.0343 8.91937L12.0651 8.8988L12.1474 8.85766L12.1577 8.84737L12.2194 8.81651L12.24 8.80623L12.2606 8.79594L12.3326 8.76509H12.3429L12.4251 8.72394H12.4354L12.5074 8.69309L12.528 8.6828L12.5897 8.65194L12.6309 8.63137L12.672 8.6108L12.7234 8.59023L12.816 8.54909L12.8366 8.5388L12.9189 8.50794L13.0011 8.47709H13.0114L13.0834 8.44623L13.1143 8.43594H13.1246C13.176 8.41537 13.2377 8.3948 13.2891 8.37423L13.3406 8.35366L13.4126 8.33309H13.4229L13.5051 8.30223L13.5874 8.28166L13.608 8.27137L13.68 8.2508L13.7109 8.24051L13.7623 8.23023L13.8137 8.21994L13.8549 8.20966L13.9166 8.18909L14.0194 8.16851H14.0297L14.1223 8.14794H14.1326L14.2149 8.12737H14.2354L14.2971 8.11709L14.3383 8.1068L14.3897 8.09651L14.4411 8.08623L14.472 8.07594L14.544 8.06566H14.5646L14.6469 8.05537L14.7394 8.04509H14.7497L14.832 8.0348H14.8629L14.9246 8.02451L14.9657 8.01423L15.0171 8.00394V2.55251C11.5611 2.80966 8.45486 4.31137 6.15086 6.61537C3.84686 8.91937 2.34514 12.0154 2.088 15.4714H7.52914L7.53943 15.3891V15.3788L7.54971 15.3171V15.2862L7.56 15.2142V15.2039L7.57029 15.1114L7.59086 15.0188V14.9982L7.60114 14.9262L7.61143 14.8954L7.62171 14.8439L7.632 14.7925L7.65257 14.6999L7.66286 14.6794L7.68343 14.5971V14.5868L7.704 14.4942V14.4839L7.72457 14.4017L7.73486 14.3811L7.75543 14.3194V14.3091L7.776 14.2371V14.2268L7.79657 14.1445L7.81714 14.0725L7.82743 14.0519L7.848 13.9697L7.87886 13.8874V13.8771L7.88914 13.8565L7.92 13.7742L7.94057 13.7125L7.95086 13.6714L7.96114 13.6302L7.98171 13.5788L7.992 13.5479L8.02286 13.4759L8.03314 13.4657L8.064 13.3834L8.09486 13.3011L8.10514 13.2908L8.136 13.2291L8.14629 13.1982L8.16686 13.1468V13.1365L8.19771 13.0645L8.22857 13.0028L8.23886 12.9822L8.26971 12.9102V12.8999L8.31086 12.8177V12.8074L8.352 12.7354L8.36229 12.7148L8.39314 12.6531L8.41371 12.6222L8.46514 12.5297L8.48571 12.4988L8.496 12.4782L8.52686 12.4165L8.568 12.3445L8.60914 12.2725L8.61943 12.2622L8.66057 12.2005L8.67086 12.1799L8.70171 12.1285L8.72229 12.0977V12.0874C8.77372 12.0051 8.82514 11.9125 8.88686 11.8302L8.93829 11.7582L8.94857 11.7479L8.98971 11.6862L9.03086 11.6142ZM12.5589 11.0691L12.5177 11.0999L12.5074 11.1102L12.456 11.1411C12.4046 11.1719 12.3531 11.2131 12.3017 11.2439L12.2606 11.2748L12.2503 11.2851C12.1783 11.3365 12.1166 11.3879 12.0549 11.4394L12.0137 11.4702L12.0034 11.4805C11.9417 11.5319 11.8697 11.5834 11.808 11.6451L11.7771 11.6759L11.7669 11.6862L11.7154 11.7274L11.6743 11.7685L11.664 11.7788L11.6331 11.8097L11.5406 11.8919L11.4994 11.9331L11.4583 11.9742L11.448 11.9845L11.4171 12.0154L11.376 12.0565L11.3451 12.0874L11.3349 12.0977L11.3246 12.1079L11.2526 12.1902L11.2423 12.2005L11.2114 12.2314L11.1909 12.2519L11.1703 12.2725L11.1394 12.3034L11.1291 12.3137L11.088 12.3651L11.0469 12.4165L11.0366 12.4268L11.0057 12.4679L10.9646 12.5194L10.9337 12.5502L10.9234 12.5605L10.8823 12.6119L10.8411 12.6634L10.8309 12.6737L10.8 12.7148L10.7794 12.7354L10.7589 12.7662L10.728 12.8074L10.7177 12.8177L10.6869 12.8691L10.656 12.9205L10.6251 12.9617L10.6149 12.9719L10.5943 12.9925L10.5737 13.0234L10.5531 13.0645L10.5429 13.0748L10.512 13.1262L10.4811 13.1777L10.4709 13.1879L10.4503 13.2291V13.2805L10.4297 13.3114L10.4091 13.3525L10.3989 13.3731L10.368 13.4245L10.3371 13.4759L10.3269 13.4862L10.3063 13.5274L10.296 13.5479L10.2857 13.5788L10.2651 13.6199L10.2549 13.6405L10.224 13.6919L10.1931 13.7537L10.1726 13.8051V13.8154L10.1623 13.8462L10.152 13.8771L10.1314 13.9182L10.1211 13.9388L10.1006 13.9902L10.08 14.0519V14.0622L10.0594 14.1137L10.0491 14.1445L10.0389 14.1754L10.0183 14.2165L10.008 14.2371L9.98743 14.2885L9.96686 14.3502V14.3605L9.94629 14.4119L9.92571 14.4737L9.91543 14.5148L9.90514 14.5354L9.88457 14.5971L9.864 14.6588V14.6691L9.85371 14.7205L9.84343 14.7514L9.83314 14.7822L9.82286 14.8234V14.8439L9.81257 14.9057L9.792 14.9674V14.9777L9.78171 15.0291L9.77143 15.0599L9.76114 15.0908L9.75086 15.1319V15.1525L9.74057 15.2142L9.73029 15.2759L9.70971 15.3994L9.69943 15.4405V15.4611H15.0686V10.1125C14.1429 10.2462 13.2994 10.5857 12.5589 11.0691ZM20.9726 15.4611H26.3006V15.4405L26.2903 15.3994L26.28 15.3582V15.3274L26.2697 15.2759V15.2657L26.2594 15.2039V15.1937L26.2491 15.1319V15.1114L26.2389 15.0702L26.2286 15.0085L26.2183 14.9571V14.9468L26.1977 14.8851C26.1874 14.8337 26.1669 14.7822 26.1566 14.7308L26.1463 14.6999L26.136 14.6485V14.6382L26.1154 14.5765L26.0846 14.5148L26.0743 14.4942L26.064 14.4531L26.0537 14.4222L26.0434 14.3914L26.0229 14.3399V14.3297L26.0023 14.2679L25.9817 14.2165L25.9714 14.1959L25.9509 14.1548L25.9406 14.1239L25.9303 14.0931L25.9097 14.0417V14.0314L25.8891 13.9697L25.8583 13.8977L25.8377 13.8565L25.8274 13.8257L25.7966 13.7537V13.7434L25.7657 13.6817L25.7349 13.6302L25.7246 13.6097L25.6937 13.5377L25.6834 13.5171L25.6629 13.4759L25.6526 13.4657L25.6217 13.4142L25.5909 13.3628L25.5806 13.3422L25.56 13.3011L25.5394 13.2702L25.5291 13.2497L25.5086 13.2085L25.4983 13.1982L25.4674 13.1468L25.4366 13.0954L25.4263 13.0851L25.4057 13.0439L25.3851 13.0131L25.3646 12.9925L25.3337 12.9514L25.3234 12.9411L25.2926 12.8897L25.2617 12.8382L25.2514 12.8279L25.2309 12.7868L25.2103 12.7559L25.1897 12.7354L25.1589 12.6942L25.1486 12.6839L25.1074 12.6325L25.0663 12.5811L25.056 12.5708L25.0251 12.5399L24.984 12.4885L24.9531 12.4474L24.9429 12.4371L24.9017 12.3857L24.8606 12.3342L24.8503 12.3239L24.8194 12.2931L24.7783 12.2519L24.7474 12.2211L24.7371 12.2108L24.696 12.1697L24.6549 12.1285L24.6446 12.1182L24.6137 12.0874L24.5931 12.0668L24.5726 12.0462L24.5417 12.0154L24.5314 12.0051L24.4903 11.9639L24.4491 11.9228L24.4389 11.9125L24.408 11.8817L24.3874 11.8611L24.3669 11.8405L24.3257 11.7994L24.2846 11.7582L24.2434 11.7171L24.2331 11.7068L24.2023 11.6759L24.1509 11.6348L24.12 11.6039L24.1097 11.5937C24.0171 11.5114 23.9246 11.4394 23.8217 11.3674L23.7703 11.3262L23.76 11.3159L23.7189 11.2851L23.616 11.2131L23.5646 11.1822L23.5131 11.1514L23.4103 11.0794L23.3691 11.0588L23.3589 11.0485L23.3074 11.0177L23.256 10.9868C23.1634 10.9354 23.0811 10.8839 22.9886 10.8325L22.9783 10.8222L22.9371 10.8017L22.9166 10.7914L22.8857 10.7708H22.8754C22.824 10.7399 22.7726 10.7194 22.7109 10.6885L22.7006 10.6782L22.6594 10.6577L22.6286 10.6474L22.5977 10.6371C22.536 10.6165 22.4846 10.5857 22.4229 10.5651H22.4126L22.3611 10.5445L22.3303 10.5342L22.2994 10.5239L22.2377 10.5034L22.1863 10.4828C21.888 10.3697 21.5794 10.2874 21.2606 10.2257L21.1989 10.2154C21.1371 10.2051 21.0754 10.1948 21.0034 10.1845V15.4611H20.9726ZM26.28 21.3548H20.9109V26.7034H20.9314L20.9726 26.6931L21.0137 26.6828H21.0343L21.0857 26.6725H21.096L21.1577 26.6622H21.168L21.2194 26.6519H21.24L21.2811 26.6417L21.3223 26.6314L21.3429 26.6211L21.3943 26.6108H21.4046L21.4663 26.5902H21.4766L21.528 26.5799L21.5486 26.5697L21.5897 26.5594L21.6309 26.5491L21.6514 26.5388L21.7029 26.5285H21.7131L21.7749 26.5079H21.7851L21.8366 26.4874L21.8571 26.4771L21.8983 26.4668L21.9291 26.4565L21.9497 26.4462L22.0011 26.4257L22.0731 26.4051L22.1246 26.3845L22.1451 26.3742L22.1863 26.3639L22.2171 26.3537L22.2377 26.3434L22.2891 26.3228L22.3611 26.2919L22.4126 26.2714L22.4331 26.2611L22.4743 26.2405L22.5051 26.2302L22.5257 26.2199L22.5771 26.1994H22.5874L22.6491 26.1685L22.7006 26.1479L22.7211 26.1377L22.7623 26.1171L22.7931 26.0965L22.8651 26.0554L22.8754 26.0451L22.9269 26.0142C23.0194 25.9628 23.1017 25.9114 23.1943 25.8599L23.2457 25.8291L23.2663 25.8188L23.3074 25.7982L23.3383 25.7777L23.3589 25.7571L23.4 25.7262L23.4103 25.7159L23.4617 25.6851L23.5131 25.6542L23.5234 25.6439L23.5851 25.6028L23.6057 25.5822L23.6469 25.5514L23.6571 25.5411L23.7086 25.4999L23.76 25.4588L23.7703 25.4485L23.8011 25.4177L23.832 25.3971L23.8526 25.3765L23.8937 25.3457L23.904 25.3354L23.9554 25.2942L24.0069 25.2531L24.0171 25.2428L24.048 25.2119L24.0686 25.1914L24.0891 25.1708L24.12 25.1399L24.1303 25.1297L24.1817 25.0885L24.2229 25.0474L24.2331 25.0371L24.264 25.0062L24.2846 24.9857L24.3051 24.9651L24.336 24.9342L24.3463 24.9239L24.3874 24.8828L24.4286 24.8417L24.4389 24.8314L24.4697 24.8005L24.4903 24.7799L24.5109 24.7594L24.5417 24.7285L24.552 24.7182L24.5931 24.6771L24.6343 24.6359L24.6446 24.6257L24.6754 24.5948L24.696 24.5742L24.7166 24.5537L24.7474 24.5228L24.7577 24.5125L24.7989 24.4611L24.84 24.4097L24.8503 24.3994L24.8811 24.3582L24.9017 24.3377L24.9223 24.3171L24.9531 24.2759L24.9634 24.2657L25.0046 24.2142L25.0457 24.1628L25.056 24.1525L25.0869 24.1114L25.1074 24.0908L25.128 24.0702L25.1589 24.0291L25.1691 24.0188L25.2 23.9674L25.2309 23.9159L25.2411 23.9057L25.2617 23.8645L25.2823 23.8337L25.3029 23.8028L25.3234 23.7617L25.3337 23.7514L25.3646 23.6999L25.3954 23.6485L25.4057 23.6382L25.4263 23.5971L25.4571 23.5457L25.4777 23.5045L25.488 23.4942L25.5189 23.4428L25.5497 23.3914L25.56 23.3811L25.5806 23.3399L25.5909 23.3091L25.6011 23.2782L25.6217 23.2371L25.632 23.2268L25.6629 23.1754L25.6937 23.1239L25.704 23.1137L25.7246 23.0725L25.7554 23.0108L25.776 22.9697L25.7863 22.9594L25.8377 22.8462V22.8359L25.848 22.8154L25.8686 22.7742L25.8789 22.7434L25.8891 22.7125L25.9097 22.6714V22.6611L25.9509 22.5377L25.9611 22.5171L25.9714 22.4759V22.4657L26.0126 22.3525L26.0331 22.2908L26.0537 22.2291L26.0846 22.1057L26.0949 22.0542V22.0439L26.1154 21.9822L26.136 21.9205V21.8999L26.1463 21.8588L26.1566 21.8279L26.1669 21.7971L26.1771 21.7457V21.7354L26.1874 21.6737L26.1977 21.6119L26.2183 21.4885L26.2286 21.4371L26.28 21.3548ZM28.368 21.3548C28.3577 21.4165 28.3577 21.4782 28.3474 21.5297L28.3371 21.6119V21.6325V21.6428L28.3063 21.8177V21.8279L28.296 21.9102C28.2857 21.9719 28.2754 22.0337 28.2651 22.0851C28.2446 22.1777 28.224 22.2599 28.2034 22.3525L28.1829 22.4348V22.4554L28.1623 22.5274L28.152 22.5582L28.1417 22.6097V22.6199L28.0903 22.7845L28.0697 22.8668V22.8771L28.0389 22.9594V22.9697L28.008 23.0519C27.9771 23.1342 27.9463 23.2165 27.9154 23.2988L27.8949 23.3605L27.8846 23.3811L27.8537 23.4634L27.8229 23.5457V23.5559L27.792 23.6279L27.7817 23.6588L27.7611 23.7102L27.7406 23.7514V23.7617L27.7097 23.8337L27.6994 23.8542L27.6891 23.8748L27.6583 23.9468L27.648 23.9571L27.6069 24.0394L27.5657 24.1114L27.5554 24.1319L27.5246 24.1937L27.504 24.2245V24.2348L27.4629 24.3171L27.4423 24.3479L27.4114 24.4097L27.4011 24.4302L27.36 24.5022V24.5125L27.3189 24.5845V24.5948L27.2777 24.6668L27.2674 24.6874L27.2366 24.7388L27.216 24.7697L27.1954 24.8108L27.1646 24.8622L27.144 24.8931L27.1029 24.9548L27.0926 24.9651L27.0411 25.0371L26.9897 25.1091L26.9794 25.1194L26.9383 25.1811L26.9177 25.2017L26.8869 25.2531L26.856 25.2942L26.8354 25.3251L26.8046 25.3765L26.784 25.3971L26.7429 25.4588L26.7326 25.4691L26.6811 25.5411L26.6297 25.6028L26.6194 25.6234L26.5577 25.7057C26.5166 25.7571 26.4754 25.7982 26.4446 25.8497L26.4343 25.8702L26.424 25.8908L26.3726 25.9525L26.3109 26.0142L26.3006 26.0245L26.2491 26.0862L26.2286 26.1068L26.1874 26.1479L26.1566 26.1788L26.1257 26.2097L26.0846 26.2508L26.064 26.2714L26.0126 26.3228L26.0023 26.3331L25.9406 26.3948L25.8789 26.4565L25.8686 26.4668L25.8171 26.5182L25.7966 26.5388L25.7554 26.5799L25.7246 26.6108L25.6937 26.6417L25.6526 26.6828L25.632 26.7034L25.5703 26.7548L25.56 26.7651L25.4983 26.8268L25.4366 26.8782L25.416 26.8885L25.4057 26.8988L25.344 26.9502L25.3337 26.9605L25.2926 26.9914L25.2514 27.0222L25.2206 27.0428L25.1691 27.0839L25.1486 27.0942L25.0869 27.1457L25.0149 27.1971L25.0046 27.2074L24.9429 27.2485L24.9223 27.2588L24.8709 27.2999L24.84 27.3205L24.7989 27.3514L24.7577 27.3822L24.7269 27.4028L24.6651 27.4439L24.6549 27.4542L24.5829 27.5057L24.5109 27.5571L24.4389 27.5982L24.408 27.6188L24.3566 27.6497C24.3051 27.6805 24.2537 27.7114 24.2023 27.7422L24.1406 27.7834L24.1303 27.7937C23.9554 27.8965 23.7703 27.9891 23.5851 28.0817L23.5029 28.1228H23.4926L23.4206 28.1537C22.6389 28.5137 21.7954 28.7502 20.9211 28.8634V34.3148C24.3771 34.0577 27.4834 32.5559 29.7874 30.2519C32.0914 27.9479 33.5931 24.8519 33.8503 21.3959H28.368V21.3548ZM8.55771 17.5594H1.04914C0.473143 17.5594 0 17.0862 0 16.5102C0 12.0668 1.8 8.04509 4.72114 5.12394C7.64229 2.21309 11.6537 0.413086 16.0971 0.413086C16.6731 0.413086 17.1463 0.886229 17.1463 1.46223V8.9708V8.98109V15.1525C17.4034 15.0908 17.6606 15.0497 17.9383 15.0497C18.2674 15.0497 18.5863 15.1011 18.8949 15.1937V8.98109V1.46223C18.8949 0.886229 19.368 0.413086 19.944 0.413086C24.3771 0.413086 28.3886 2.21309 31.2891 5.13423C34.2 8.04509 36 12.0771 36 16.5102C36 17.0862 35.5269 17.5594 34.9509 17.5594H27.4423H21.1371C21.1989 17.8165 21.2297 18.0737 21.2297 18.3514C21.2297 18.6702 21.1886 18.9788 21.1063 19.2668H27.4011H34.9097C35.4857 19.2668 35.9589 19.7399 35.9589 20.3159C35.9589 24.7594 34.1589 28.7811 31.2377 31.7022C28.3269 34.6131 24.3051 36.4131 19.872 36.4131C19.296 36.4131 18.8229 35.9399 18.8229 35.3639V27.8348V21.5297C18.5451 21.6017 18.2571 21.6428 17.9486 21.6428C17.5989 21.6428 17.2697 21.5914 16.9509 21.4885V27.0222C16.9509 27.5982 16.4777 28.0714 15.9017 28.0714C13.7623 28.0714 11.8183 27.1971 10.4091 25.7982C9 24.3891 8.12571 22.4451 8.12571 20.3159C8.12571 19.7399 8.59886 19.2668 9.17486 19.2668H14.8114C14.7291 18.9788 14.688 18.6702 14.688 18.3514C14.688 18.0737 14.7189 17.8165 14.7806 17.5594H8.55771ZM14.8423 21.3548H10.296C10.512 22.4965 11.0777 23.5148 11.8697 24.3068C12.6617 25.0988 13.6903 25.6542 14.8423 25.8702V21.3548Z" fill="white"/>
</g>
<defs>
<clipPath id="clip0_207_421">
<rect width="36" height="36" fill="white" transform="translate(0 0.413086)"/>
</clipPath>
</defs>
</svg>
