<svg width="120" height="77" viewBox="0 0 120 77" fill="none" xmlns="http://www.w3.org/2000/svg">
<path d="M36.0341 8.03552C36.2115 8.15408 36.3859 8.28176 36.5603 8.40336L37.2789 7.86528C37.751 7.53089 38.2261 7.19953 38.7042 6.87729C38.2525 6.62232 37.8221 6.33053 37.4173 6.00482L37.3301 5.92578C36.7015 6.53805 36.027 7.1001 35.3125 7.60689C35.5591 7.74672 35.7966 7.8896 36.0341 8.03552Z" fill="#FF9143"/>
<path d="M43.3394 1.20448C42.6478 0.502242 42.0314 0.176965 41.4661 0.198245C40.3777 0.240804 39.4576 1.41423 38.7991 2.17423C37.6385 3.49662 36.6252 4.8646 35.0075 5.64284C34.2626 5.9886 33.4951 6.28214 32.7103 6.52139C33.2731 6.6581 33.8203 6.85372 34.343 7.10506C35.2513 6.58857 36.202 6.15224 37.1845 5.80091C36.8467 5.51963 36.5438 5.1981 36.2824 4.84332C37.317 5.04801 38.3114 5.42285 39.2261 5.95291L39.7011 6.23259C39.8725 6.12315 40.0409 6.00763 40.2153 5.89819C41.2109 5.26397 42.2431 4.69042 43.3063 4.18061C42.4769 5.03283 41.5984 5.83475 40.6754 6.58219L40.4739 6.74027L40.534 6.77979C40.9752 7.08408 41.3834 7.4346 41.7518 7.82554C41.2092 7.80815 40.6726 7.70559 40.1612 7.52154C40.0109 7.4729 39.8605 7.40906 39.7162 7.34826C39.1148 7.8225 38.5034 8.28559 37.882 8.73753C37.7287 8.85001 37.5814 8.95641 37.413 9.06585C37.4491 9.09625 37.4911 9.1236 37.5272 9.15704C38.0169 9.56602 38.4525 10.037 38.8232 10.5585C38.0616 10.3184 37.3262 10.0006 36.6282 9.61C35.8434 10.145 35.0406 10.6527 34.2227 11.13C34.667 11.6059 35.0481 12.1383 35.3563 12.7138C34.7747 12.4432 34.2165 12.1239 33.6875 11.7593C33.6003 11.7015 33.5192 11.6377 33.435 11.5799C32.9178 11.8839 32.3946 12.1423 31.8564 12.4037C32.2322 12.0146 32.6201 11.6437 33.014 11.282C32.7314 11.0722 32.4547 10.8594 32.1781 10.6375C31.9015 10.4156 31.6459 10.1785 31.3843 9.94136C30.7404 10.2599 30.0729 10.5272 29.3878 10.7409C29.8389 10.2663 30.3244 9.82628 30.8401 9.42456C30.3619 8.95375 29.9272 8.4399 29.5412 7.88938C30.1533 8.09543 30.7395 8.37293 31.2881 8.71625C31.3753 8.76793 31.4535 8.82873 31.5407 8.88345C32.0879 8.47609 32.6502 8.09609 33.2215 7.7313L33.6184 7.50026C33.2747 7.19575 32.9531 6.86658 32.6562 6.51531C31.5106 6.88618 30.347 7.21146 29.2375 7.64922C27.9619 8.18198 26.7513 8.86132 25.6293 9.67384C22.3198 12.0227 20.4616 15.9443 20.0547 21.4385C20.3882 20.4004 20.8847 19.4233 21.525 18.5445C22.1398 17.7002 22.8826 16.9595 23.726 16.3496C24.7284 15.6392 25.8486 15.1162 27.0335 14.8053C29.5592 14.1122 32.2202 13.9632 34.6888 13.0938C37.0071 12.2761 39.0908 10.9111 40.9851 9.3516C42.8793 7.7921 44.061 5.74315 44.1572 3.79757C44.2023 2.72446 43.9107 1.77295 43.3394 1.20448Z" fill="#FF9143"/>
<path d="M32.3594 9.46753C32.5217 9.58913 32.6871 9.71073 32.8435 9.83537C33.1442 10.0998 33.4448 10.3734 33.7455 10.6592C34.381 10.11 35.0284 9.579 35.6879 9.06626L35.4654 8.92946C35.1226 8.70146 34.7859 8.45826 34.4551 8.20898C34.2296 8.36098 34.0071 8.51298 33.7786 8.65586C33.3115 8.93959 32.8385 9.21015 32.3594 9.46753Z" fill="#FF9143"/>
<path d="M10.5997 25.6373H3.93662L5.60239 24.8652V21.5395H17.4462V17.1072H0.734375V40.0681H10.5997C15.0738 40.0681 19.2954 38.5481 19.2954 32.8482C19.2954 27.1482 15.0738 25.6373 10.5997 25.6373ZM10.6298 35.7361H3.93662L4.9439 35.2771C6.27291 33.7571 6.27291 31.9331 4.9439 30.4131L3.94264 29.9541H10.6298C12.5421 29.9541 14.3311 30.3767 14.3311 32.836C14.3311 35.2953 12.5421 35.7361 10.6298 35.7361Z" fill="#2B4461"/>
<path d="M33.4365 16.6484C25.3933 16.6484 21.3672 22.3605 21.3672 28.5864C21.3672 34.8123 25.3933 40.5244 33.4365 40.5244C41.4797 40.5244 45.5058 34.8123 45.5058 28.5864C45.5058 22.3605 41.4827 16.6484 33.4365 16.6484ZM34.1732 35.9371L33.4425 37.5635L32.7149 35.9371C28.4512 35.6057 26.3284 32.4229 26.3284 28.5864C26.3284 24.75 28.4512 21.5702 32.6968 21.2358L33.4245 19.6124L34.1551 21.2358C38.3647 21.5702 40.4875 24.7712 40.4875 28.5864C40.4875 32.4016 38.3827 35.6057 34.1732 35.9371Z" fill="#2B4461"/>
<path d="M58.9549 25.6376H52.1685L53.9545 24.8229V21.5397H65.8014V17.1074H49.1016V40.0683H58.9549C63.435 40.0683 67.6505 38.5483 67.6505 32.8484C67.6505 27.1485 63.435 25.6376 58.9549 25.6376ZM58.9909 35.7364H52.1685L53.3863 35.177C54.589 33.7148 54.589 31.982 53.3863 30.5198L52.1685 29.9665H58.9909C60.9093 29.9665 62.6923 30.3891 62.6923 32.8484C62.6923 35.3077 60.9093 35.7364 58.9909 35.7364Z" fill="#2B4461"/>
<path d="M79.5508 17.1074H70.9844V40.0683H75.8584V33.3348L74.0543 32.5079H79.5417C85.0322 32.5079 89.3409 30.7356 89.3409 24.8046C89.3409 18.8736 85.0412 17.1074 79.5508 17.1074ZM79.7763 28.1972H74.0633L75.23 27.6531C76.559 25.8291 76.559 23.7923 75.23 21.9835L74.0633 21.4394H79.7763C82.284 21.4394 84.3887 22.096 84.3887 24.8138C84.3887 27.5315 82.284 28.1972 79.7763 28.1972Z" fill="#2B4461"/>
<path d="M101.191 24.6587L95.704 24.6405L97.5081 23.8106V17.1074H92.625V40.0683H101.191C106.673 40.0683 110.988 38.296 110.988 32.359C110.988 26.4219 106.673 24.683 101.191 24.6587ZM101.414 35.7364H95.701L96.8676 35.1892C98.1966 33.3834 98.1966 31.3375 96.8676 29.5227L95.701 28.9755H101.414C103.916 28.9755 106.026 29.6716 106.026 32.359C106.026 35.0463 103.916 35.7364 101.414 35.7364Z" fill="#2B4461"/>
<path d="M117.701 17.1074H112.836V40.0653H117.701V17.1074Z" fill="#2B4461"/>
<path d="M0.842609 49.0054C0.710376 46.5529 2.58433 44.4542 5.03615 44.3091L113.194 37.907C115.703 37.7584 117.84 39.71 117.92 42.2223L118.607 64.0227C118.683 66.4479 116.808 68.49 114.386 68.6206L6.68354 74.4276C4.22184 74.5603 2.11864 72.6723 1.98592 70.2106L0.842609 49.0054Z" fill="#FF9143"/>
<path d="M21.5955 56.1261L17.7091 56.3514L18.0778 62.711L17.276 62.7575L16.8672 55.7049L22.3571 55.3866L22.7659 62.4392L21.9642 62.4857L21.5955 56.1261Z" fill="white"/>
<path d="M28.2682 61.534C28.6306 61.513 28.9576 61.4304 29.2492 61.2863C29.5498 61.1416 29.8018 60.9406 30.005 60.6834C30.2168 60.4166 30.3756 60.0984 30.4814 59.7287C30.5867 59.3499 30.6255 58.9204 30.5976 58.4403C30.5698 57.9601 30.482 57.5426 30.3341 57.1876C30.1858 56.8235 29.9913 56.5257 29.7506 56.2942C29.5185 56.0532 29.2447 55.8782 28.9294 55.7692C28.6231 55.6597 28.2887 55.6154 27.9263 55.6364C27.564 55.6575 27.2279 55.7406 26.9182 55.8858C26.6176 56.0305 26.3613 56.2362 26.1496 56.503C25.9373 56.7607 25.7785 57.079 25.6732 57.4577C25.5673 57.8275 25.5283 58.2524 25.5562 58.7325C25.584 59.2127 25.6721 59.6348 25.8205 59.9989C25.9683 60.3539 26.1628 60.6516 26.404 60.8922C26.6446 61.1236 26.9227 61.2939 27.238 61.4028C27.5624 61.5113 27.9058 61.555 28.2682 61.534ZM28.3915 62.2495C27.7845 62.2847 27.2507 62.1702 26.79 61.906C26.3288 61.6328 25.9603 61.236 25.6848 60.7157L25.914 64.6701L25.1122 64.7165L24.564 55.2587L25.2842 55.217L25.4419 56.7621L25.4435 56.7893C25.6476 56.2321 25.9629 55.7912 26.3894 55.4665C26.8251 55.1413 27.36 54.9603 27.9941 54.9235C28.438 54.8978 28.8595 54.9552 29.2585 55.0957C29.6569 55.2271 30.01 55.4384 30.3178 55.7296C30.625 56.0118 30.8735 56.3791 31.0634 56.8317C31.2618 57.2747 31.3783 57.7951 31.413 58.393C31.4476 58.9909 31.3923 59.5259 31.2469 59.9979C31.1011 60.4608 30.8921 60.8547 30.6201 61.1795C30.348 61.5043 30.0174 61.7598 29.6283 61.946C29.2477 62.1226 28.8354 62.2238 28.3915 62.2495Z" fill="white"/>
<path d="M36.1542 61.7995C35.6741 61.8273 35.2255 61.7715 34.8083 61.6321C34.3912 61.4927 34.0243 61.2776 33.7075 60.9869C33.3901 60.6872 33.1323 60.3158 32.9339 59.8728C32.744 59.4203 32.6323 58.9041 32.5987 58.3243C32.5651 57.7445 32.6167 57.2234 32.7535 56.761C32.8994 56.298 33.1128 55.9039 33.3939 55.5786C33.6745 55.2442 34.0139 54.9836 34.4121 54.7969C34.8103 54.6102 35.2495 54.5029 35.7297 54.4751C36.2098 54.4473 36.6584 54.5031 37.0755 54.6425C37.5017 54.7814 37.8735 55.0008 38.1908 55.3005C38.5076 55.5912 38.7652 55.958 38.9636 56.401C39.162 56.844 39.278 57.3554 39.3116 57.9352C39.3452 58.515 39.2893 59.0408 39.144 59.5128C38.9981 59.9758 38.7849 60.3745 38.5043 60.7089C38.2232 61.0342 37.879 61.2905 37.4718 61.4777C37.0735 61.6644 36.6344 61.7717 36.1542 61.7995ZM36.1125 61.0793C36.4749 61.0583 36.8064 60.9754 37.107 60.8308C37.4168 60.6856 37.6778 60.4841 37.8901 60.2264C38.1024 59.9686 38.2614 59.6549 38.3673 59.2852C38.4816 58.9059 38.5246 58.4716 38.4963 57.9824C38.4679 57.4932 38.3753 57.0714 38.2184 56.7169C38.07 56.3528 37.8755 56.055 37.6348 55.8236C37.3937 55.583 37.1111 55.4131 36.7872 55.3137C36.4719 55.2047 36.133 55.1607 35.7706 55.1817C35.4082 55.2027 35.0767 55.2856 34.7761 55.4303C34.4749 55.5659 34.2184 55.7671 34.0066 56.0339C33.7943 56.2916 33.6355 56.6099 33.5302 56.9886C33.4244 57.3584 33.3857 57.7878 33.414 58.277C33.4424 58.7662 33.5307 59.1929 33.6791 59.5569C33.8269 59.912 34.0212 60.2052 34.2618 60.4367C34.5025 60.6681 34.7805 60.8384 35.0959 60.9473C35.4112 61.0563 35.7501 61.1003 36.1125 61.0793Z" fill="white"/>
<path d="M45.2673 54.7539L42.2098 54.9312C42.2267 55.6937 42.2349 56.3841 42.2344 57.0022C42.2334 57.6113 42.2102 58.1534 42.1651 58.6287C42.1284 59.0944 42.061 59.4983 41.9626 59.8403C41.8728 60.1727 41.7431 60.4439 41.5735 60.6537L45.5958 60.4205L45.2673 54.7539ZM46.6823 61.0529L40.9342 61.3861L40.9557 63.4027L40.249 63.4437L40.0923 60.7395L40.5815 60.7112C40.8368 60.5691 41.0275 60.3308 41.1536 59.9963C41.2882 59.6522 41.381 59.215 41.4321 58.6849C41.4826 58.1456 41.5002 57.5083 41.4849 56.773C41.4786 56.0371 41.4622 55.2063 41.4358 54.2807L46.0289 54.0144L46.3975 60.374L47.4438 60.3134L47.6006 63.0176L46.9076 63.0577L46.6823 61.0529Z" fill="white"/>
<path d="M49.3324 54.5183L49.4694 56.8828L51.1409 56.7859C51.6301 56.7575 52.0184 56.635 52.3058 56.4184C52.5926 56.1927 52.7243 55.876 52.7006 55.4684C52.6754 55.0335 52.5177 54.7427 52.2274 54.5959C51.9371 54.4491 51.5338 54.3907 51.0174 54.4206L49.3324 54.5183ZM49.5072 57.535L49.6608 60.1849L51.4002 60.084C51.6811 60.0678 51.9334 60.0304 52.1573 59.972C52.3902 59.913 52.5853 59.829 52.7426 59.7199C52.9084 59.6012 53.0319 59.4577 53.113 59.2894C53.1936 59.112 53.2266 58.8965 53.2119 58.6428C53.1835 58.1536 53.0053 57.8231 52.6772 57.6512C52.3486 57.4703 51.8672 57.3982 51.233 57.435L49.5072 57.535ZM48.4905 53.8718L50.9364 53.73C51.7427 53.6832 52.3624 53.7882 52.7954 54.0449C53.2284 54.3016 53.4625 54.7334 53.4976 55.3404C53.5218 55.7571 53.433 56.1076 53.2314 56.392C53.0382 56.6668 52.7546 56.8696 52.3804 57.0004C52.8919 57.0434 53.2874 57.2023 53.567 57.477C53.8555 57.7511 54.0132 58.1192 54.04 58.5812C54.0615 58.9526 54.012 59.2736 53.8913 59.5442C53.7792 59.8052 53.6056 60.0244 53.3704 60.2016C53.1353 60.3789 52.8477 60.5137 52.5076 60.6061C52.1766 60.698 51.8028 60.7561 51.386 60.7802L48.8993 60.9244L48.4905 53.8718Z" fill="white"/>
<path d="M55.5105 53.4648L56.3122 53.4183L56.6541 59.3159L60.6199 53.1686L61.3944 53.1237L61.8033 60.1764L61.0015 60.2228L60.6589 54.3117L56.7075 60.4717L55.9193 60.5174L55.5105 53.4648Z" fill="white"/>
<path d="M67.3625 56.65L66.5336 56.698L64.2727 60.0332L63.3215 60.0883L65.8473 56.3833L62.8583 53.0389L63.8095 52.9837L66.4527 56.0074L67.3224 55.957L67.1388 52.7908L67.9541 52.7435L68.1377 55.9097L69.0074 55.8593L71.3106 52.5489L72.221 52.4962L69.6498 56.122L72.6027 59.5503L71.6243 59.6071L69.0068 56.5547L68.1779 56.6027L68.363 59.7961L67.5476 59.8434L67.3625 56.65Z" fill="white"/>
<path d="M76.2171 52.8372C75.592 52.8734 75.0648 53.1085 74.6355 53.5424C74.2147 53.9667 73.9775 54.5804 73.9241 55.3834L78.4492 55.1211C78.4527 54.7118 78.396 54.3606 78.279 54.0675C78.1615 53.7652 78.0019 53.52 77.8001 53.3317C77.5983 53.1434 77.3589 53.0119 77.0818 52.937C76.8133 52.8526 76.5251 52.8193 76.2171 52.8372ZM79.2751 58.55C79.0581 58.7262 78.7553 58.9119 78.3667 59.1071C77.9866 59.2928 77.484 59.4037 76.8589 59.44C75.7265 59.5056 74.8336 59.2347 74.1803 58.6272C73.5361 58.0192 73.1803 57.1354 73.1131 55.9758C73.08 55.4051 73.1319 54.8885 73.2687 54.4261C73.4146 53.9631 73.628 53.569 73.9091 53.2436C74.1897 52.9092 74.5246 52.6489 74.9137 52.4628C75.3024 52.2675 75.7277 52.1565 76.1897 52.1298C76.6608 52.1024 77.0913 52.1593 77.4812 52.3003C77.8797 52.4317 78.2152 52.6532 78.4878 52.9646C78.7689 53.2664 78.9732 53.6545 79.1007 54.1289C79.2367 54.5937 79.2775 55.1412 79.2232 55.7716L73.9371 56.078C74.0173 56.9914 74.3114 57.6743 74.8194 58.1266C75.3268 58.5698 76.0063 58.7668 76.8579 58.7174C77.3743 58.6875 77.8047 58.5853 78.149 58.4108C78.4934 58.2363 78.7827 58.0514 79.0168 57.856L79.2751 58.55Z" fill="white"/>
<path d="M85.8046 55.4582L81.7823 55.6914L81.9745 59.0071L81.1728 59.0536L80.764 52.0009L81.5657 51.9545L81.7422 54.9984L85.7645 54.7652L85.588 51.7213L86.4033 51.674L86.8122 58.7267L85.9968 58.7739L85.8046 55.4582Z" fill="white"/>
<path d="M88.5935 51.5471L89.3952 51.5006L89.7371 57.3982L93.7029 51.2509L94.4775 51.206L94.8863 58.2586L94.0845 58.3051L93.7419 52.3939L89.7905 58.554L89.0023 58.5997L88.5935 51.5471Z" fill="white"/>
<path d="M99.4668 51.4894C98.8417 51.5257 98.3145 51.7608 97.8851 52.1947C97.4643 52.619 97.2272 53.2327 97.1738 54.0357L101.699 53.7734C101.702 53.3641 101.646 53.0129 101.529 52.7197C101.411 52.4175 101.252 52.1722 101.05 51.984C100.848 51.7957 100.609 51.6641 100.332 51.5893C100.063 51.5049 99.7748 51.4716 99.4668 51.4894ZM102.525 57.2023C102.308 57.3785 102.005 57.5642 101.616 57.7594C101.236 57.9451 100.734 58.056 100.109 58.0922C98.9762 58.1579 98.0833 57.887 97.43 57.2795C96.7857 56.6714 96.43 55.7876 96.3628 54.6281C96.3297 54.0573 96.3816 53.5408 96.5184 53.0783C96.6642 52.6154 96.8777 52.2213 97.1588 51.8959C97.4394 51.5615 97.7743 51.3012 98.1634 51.1151C98.552 50.9198 98.9774 50.8088 99.4394 50.782C99.9105 50.7547 100.341 50.8116 100.731 50.9526C101.129 51.084 101.465 51.3054 101.737 51.6169C102.019 51.9187 102.223 52.3068 102.35 52.7812C102.486 53.246 102.527 53.7935 102.473 54.4239L97.1868 54.7303C97.267 55.6437 97.5611 56.3265 98.0691 56.7788C98.5765 57.2221 99.256 57.419 100.108 57.3697C100.624 57.3397 101.054 57.2375 101.399 57.063C101.743 56.8886 102.032 56.7036 102.266 56.5083L102.525 57.2023Z" fill="white"/>
</svg>
