<svg width="245" height="231" viewBox="0 0 245 231" fill="none" xmlns="http://www.w3.org/2000/svg">
<g filter="url(#filter0_dddd_207_135)">
<path d="M86.1239 18.2001C86.3954 18.3816 86.6623 18.577 86.9292 18.7631L88.0289 17.9396C88.7514 17.4279 89.4784 16.9208 90.2101 16.4276C89.5188 16.0374 88.8601 15.5908 88.2406 15.0924L88.1072 14.9714C87.1453 15.9084 86.113 16.7686 85.0195 17.5442C85.3969 17.7582 85.7604 17.9768 86.1239 18.2001Z" fill="#FF9143"/>
<path d="M97.2945 7.74722C96.2361 6.67254 95.2928 6.17474 94.4277 6.20731C92.762 6.27244 91.3539 8.06823 90.3462 9.23131C88.57 11.2551 87.0193 13.3486 84.5436 14.5396C83.4036 15.0687 82.229 15.518 81.028 15.8841C81.8893 16.0933 82.7267 16.3927 83.5267 16.7773C84.9167 15.9869 86.3716 15.3192 87.8751 14.7815C87.3583 14.351 86.8948 13.859 86.4947 13.316C88.078 13.6293 89.5999 14.2029 90.9996 15.0141L91.7266 15.4421C91.9889 15.2746 92.2466 15.0979 92.5135 14.9304C94.0371 13.9598 95.6167 13.082 97.2439 12.3018C95.9745 13.606 94.6301 14.8333 93.2175 15.9771L92.9092 16.2191L93.0013 16.2795C93.6764 16.7452 94.3011 17.2817 94.8649 17.8799C94.0345 17.8533 93.2133 17.6964 92.4307 17.4147C92.2006 17.3403 91.9705 17.2426 91.7496 17.1495C90.8293 17.8753 89.8937 18.584 88.9427 19.2756C88.708 19.4478 88.4825 19.6106 88.2249 19.7781C88.2801 19.8246 88.3445 19.8665 88.3997 19.9176C89.1491 20.5435 89.8157 21.2644 90.383 22.0624C89.2175 21.6949 88.092 21.2086 87.0239 20.6108C85.8229 21.4296 84.5942 22.2066 83.3426 22.937C84.0226 23.6653 84.6057 24.4801 85.0774 25.3608C84.1873 24.9467 83.3331 24.4581 82.5235 23.9C82.3901 23.8116 82.2659 23.7139 82.137 23.6255C81.3456 24.0908 80.5449 24.4862 79.7212 24.8863C80.2964 24.2908 80.89 23.7232 81.4928 23.1696C81.0603 22.8486 80.6369 22.5229 80.2136 22.1833C79.7902 21.8437 79.3991 21.4808 78.9988 21.1179C78.0133 21.6054 76.9917 22.0145 75.9433 22.3415C76.6337 21.6152 77.3766 20.9418 78.1659 20.327C77.4341 19.6065 76.7687 18.8201 76.178 17.9776C77.1148 18.293 78.012 18.7177 78.8515 19.2431C78.985 19.3221 79.1046 19.4152 79.238 19.4989C80.0755 18.8755 80.936 18.294 81.8103 17.7357L82.4177 17.3821C81.8917 16.9161 81.3996 16.4124 80.9452 15.8748C79.192 16.4424 77.4112 16.9402 75.7133 17.6101C73.7612 18.4254 71.9084 19.4651 70.1914 20.7085C65.1267 24.3032 62.2829 30.3047 61.6602 38.7129C62.1706 37.1242 62.9303 35.6288 63.9103 34.284C64.8511 32.9919 65.9879 31.8583 67.2786 30.925C68.8127 29.8378 70.527 29.0373 72.3403 28.5616C76.2056 27.5009 80.278 27.2729 84.0559 25.9424C87.6037 24.6909 90.7925 22.602 93.6915 20.2154C96.5905 17.8288 98.3989 14.6931 98.5461 11.7156C98.6151 10.0734 98.1688 8.6172 97.2945 7.74722Z" fill="#FF9143"/>
<path d="M80.4961 20.3936C80.7446 20.5797 80.9977 20.7658 81.2369 20.9565C81.6971 21.3613 82.1573 21.78 82.6174 22.2173C83.5899 21.3768 84.5807 20.5642 85.59 19.7795L85.2495 19.5701C84.7249 19.2212 84.2095 18.849 83.7034 18.4675C83.3583 18.7001 83.0177 18.9328 82.668 19.1514C81.9532 19.5856 81.2293 19.9997 80.4961 20.3936Z" fill="#FF9143"/>
<path d="M47.1953 45.1391L36.9983 45.1391L39.5476 43.9574L39.5476 38.8678L57.673 38.8678L57.673 32.0847L32.0977 32.0847L32.0977 67.2236L47.1953 67.2236C54.0424 67.2236 60.503 64.8974 60.503 56.1743C60.503 47.4513 54.0424 45.1391 47.1953 45.1391ZM47.2413 60.594L36.9983 60.594L38.5398 59.8915C40.5737 57.5654 40.5737 54.774 38.5398 52.4478L37.0075 51.7453L47.2413 51.7453C50.1679 51.7453 52.9058 52.392 52.9058 56.1557C52.9058 59.9194 50.1679 60.594 47.2413 60.594Z" fill="white"/>
<path d="M82.1386 31.3816C69.8294 31.3816 63.668 40.1233 63.668 49.6512C63.668 59.1791 69.8294 67.9208 82.1386 67.9208C94.4477 67.9208 100.609 59.1791 100.609 49.6512C100.609 40.1233 94.4523 31.3816 82.1386 31.3816ZM83.2659 60.9004L82.1478 63.3894L81.0342 60.9004C74.5092 60.3933 71.2605 55.5224 71.2605 49.6512C71.2605 43.78 74.5092 38.9137 81.0066 38.4019L82.1202 35.9176L83.2383 38.4019C89.6805 38.9137 92.9292 43.8125 92.9292 49.6512C92.9292 55.4898 89.7081 60.3933 83.2659 60.9004Z" fill="white"/>
<path d="M121.193 45.1391L110.807 45.1391L113.54 43.8923L113.54 38.8678L131.67 38.8678L131.67 32.0847L106.113 32.0847L106.113 67.2236L121.193 67.2236C128.049 67.2236 134.5 64.8974 134.5 56.1743C134.5 47.4513 128.049 45.1391 121.193 45.1391ZM121.248 60.594L110.807 60.594L112.67 59.738C114.511 57.5002 114.511 54.8484 112.67 52.6107L110.807 51.764L121.248 51.764C124.184 51.764 126.912 52.4106 126.912 56.1743C126.912 59.938 124.184 60.594 121.248 60.594Z" fill="white"/>
<path d="M152.715 32.0847L139.605 32.0847L139.605 67.2236L147.065 67.2236L147.065 56.9187L144.304 55.6533L152.701 55.6533C161.104 55.6533 167.698 52.941 167.698 43.8643C167.698 34.7877 161.118 32.0847 152.715 32.0847ZM153.06 49.0563L144.317 49.0563L146.103 48.2236C148.137 45.4322 148.137 42.3151 146.103 39.547L144.317 38.7142L153.06 38.7142C156.898 38.7142 160.119 39.7191 160.119 43.8783C160.119 48.0375 156.898 49.0563 153.06 49.0563Z" fill="white"/>
<path d="M185.832 43.641L177.435 43.6131L180.196 42.343L180.196 32.0847L172.723 32.0847L172.723 67.2236L185.832 67.2236C194.221 67.2236 200.824 64.5113 200.824 55.4253C200.824 46.3394 194.221 43.6783 185.832 43.641ZM186.173 60.594L177.43 60.594L179.215 59.7566C181.249 56.9931 181.249 53.8621 179.215 51.0847L177.43 50.2473L186.173 50.2473C190.001 50.2473 193.232 51.3127 193.232 55.4253C193.232 59.538 190.001 60.594 186.173 60.594Z" fill="white"/>
<path d="M211.098 32.0847L203.652 32.0847L203.652 67.2189L211.098 67.2189L211.098 32.0847Z" fill="white"/>
<path d="M32.1376 78.5479C32.0053 76.0954 33.8793 73.9967 36.3311 73.8516L206.634 63.7709C209.143 63.6224 211.28 65.574 211.36 68.0863L212.561 106.196C212.637 108.621 210.762 110.663 208.34 110.794L38.8392 119.932C36.3775 120.065 34.2743 118.177 34.1415 115.715L32.1376 78.5479Z" fill="#FF9143"/>
<path d="M64.0263 91.7959L58.0786 92.1407L58.6428 101.873L57.4158 101.944L56.7902 91.1512L65.1918 90.6642L65.8174 101.457L64.5905 101.528L64.0263 91.7959ZM74.238 100.072C74.7926 100.04 75.293 99.9135 75.7393 99.6928C76.1994 99.4714 76.585 99.1639 76.896 98.7703C77.2201 98.362 77.4631 97.8749 77.6251 97.3091C77.7862 96.7295 77.8455 96.0722 77.8029 95.3374C77.7603 94.6026 77.6259 93.9636 77.3997 93.4203C77.1726 92.8631 76.8749 92.4074 76.5066 92.0532C76.1514 91.6843 75.7325 91.4164 75.2498 91.2496C74.7811 91.0821 74.2694 91.0143 73.7148 91.0465C73.1603 91.0786 72.646 91.2058 72.172 91.4281C71.7119 91.6495 71.3198 91.9643 70.9957 92.3726C70.6708 92.767 70.4278 93.2541 70.2666 93.8338C70.1047 94.3996 70.045 95.0499 70.0876 95.7847C70.1302 96.5195 70.265 97.1654 70.492 97.7226C70.7183 98.2659 71.0159 98.7216 71.3851 99.0897C71.7534 99.444 72.1788 99.7045 72.6614 99.8713C73.1579 100.037 73.6835 100.104 74.238 100.072ZM74.4267 101.167C73.4978 101.221 72.6808 101.046 71.9758 100.641C71.2699 100.223 70.7061 99.616 70.2844 98.8197L70.6352 104.871L69.4082 104.942L68.5692 90.4684L69.6714 90.4045L69.9128 92.7692L69.9152 92.8108C70.2274 91.9581 70.71 91.2833 71.3628 90.7864C72.0295 90.2887 72.848 90.0117 73.8185 89.9555C74.4979 89.9161 75.1428 90.0039 75.7535 90.2189C76.3633 90.42 76.9037 90.7434 77.3746 91.1891C77.8448 91.6209 78.2252 92.1831 78.5157 92.8757C78.8193 93.5536 78.9976 94.3501 79.0507 95.2651C79.1037 96.1801 79.019 96.9988 78.7966 97.7211C78.5734 98.4296 78.2536 99.0324 77.8372 99.5295C77.4209 100.027 76.915 100.418 76.3194 100.703C75.7369 100.973 75.106 101.128 74.4267 101.167ZM86.3066 100.478C85.5718 100.521 84.8852 100.435 84.2469 100.222C83.6085 100.009 83.0469 99.6796 82.5621 99.2347C82.0765 98.776 81.6818 98.2077 81.3782 97.5298C81.0877 96.8372 80.9167 96.0472 80.8653 95.1599C80.8139 94.2726 80.8928 93.4751 81.1022 92.7675C81.3254 92.059 81.6521 91.4558 82.0823 90.9579C82.5117 90.4461 83.0311 90.0474 83.6405 89.7617C84.2499 89.476 84.922 89.3118 85.6568 89.2692C86.3916 89.2266 87.0782 89.312 87.7166 89.5254C88.3688 89.738 88.9377 90.0737 89.4233 90.5324C89.9082 90.9772 90.3024 91.5386 90.606 92.2166C90.9096 92.8945 91.0871 93.6771 91.1385 94.5644C91.19 95.4517 91.1045 96.2565 90.882 96.9788C90.6588 97.6873 90.3325 98.2974 89.9031 98.8092C89.4729 99.3071 88.9462 99.6993 88.3229 99.9858C87.7135 100.272 87.0414 100.436 86.3066 100.478ZM86.2427 99.3761C86.7973 99.344 87.3046 99.2172 87.7647 98.9958C88.2387 98.7735 88.6382 98.4652 88.9631 98.0708C89.288 97.6764 89.5314 97.1962 89.6934 96.6304C89.8684 96.05 89.9342 95.3854 89.8908 94.6367C89.8474 93.8881 89.7056 93.2425 89.4655 92.7C89.2385 92.1428 88.9408 91.6871 88.5725 91.3329C88.2034 90.9648 87.771 90.7047 87.2753 90.5526C86.7927 90.3858 86.2741 90.3185 85.7195 90.3506C85.165 90.3828 84.6576 90.5095 84.1975 90.731C83.7366 90.9385 83.3441 91.2464 83.02 91.6547C82.6951 92.0492 82.452 92.5362 82.2909 93.1159C82.1289 93.6817 82.0697 94.3389 82.1131 95.0876C82.1564 95.8362 82.2917 96.4892 82.5187 97.0463C82.745 97.5896 83.0422 98.0384 83.4105 98.3927C83.7788 98.7469 84.2043 99.0074 84.6869 99.1742C85.1696 99.3409 85.6881 99.4083 86.2427 99.3761ZM100.253 89.6959L95.5739 89.9672C95.5998 91.1342 95.6124 92.1906 95.6116 93.1366C95.6099 94.0687 95.5746 94.8985 95.5055 95.6258C95.4494 96.3385 95.3461 96.9566 95.1956 97.48C95.0582 97.9887 94.8597 98.4036 94.6001 98.7247L100.756 98.3679L100.253 89.6959ZM102.418 99.3357L93.6217 99.8456L93.6546 102.932L92.5732 102.995L92.3333 98.8561L93.082 98.8127C93.4728 98.5953 93.7646 98.2306 93.9575 97.7187C94.1635 97.192 94.3055 96.5231 94.3837 95.7117C94.461 94.8865 94.488 93.9112 94.4645 92.7858C94.4548 91.6596 94.4298 90.3882 94.3894 88.9717L101.418 88.5642L101.983 98.2968L103.584 98.204L103.824 102.342L102.763 102.404L102.418 99.3357ZM106.474 89.3353L106.684 92.9538L109.242 92.8056C109.99 92.7622 110.585 92.5747 111.025 92.2432C111.464 91.8978 111.665 91.4131 111.629 90.7893C111.59 90.1238 111.349 89.6787 110.905 89.4541C110.46 89.2294 109.843 89.14 109.053 89.1858L106.474 89.3353ZM106.742 93.952L106.977 98.0073L109.639 97.853C110.068 97.8281 110.455 97.7709 110.797 97.6815C111.154 97.5913 111.452 97.4627 111.693 97.2957C111.947 97.1141 112.136 96.8945 112.26 96.6369C112.383 96.3654 112.434 96.0356 112.411 95.6474C112.368 94.8987 112.095 94.3929 111.593 94.1299C111.09 93.853 110.353 93.7427 109.383 93.799L106.742 93.952ZM105.186 88.3458L108.929 88.1289C110.163 88.0573 111.111 88.218 111.774 88.6108C112.436 89.0036 112.795 89.6645 112.849 90.5934C112.886 91.2311 112.75 91.7676 112.441 92.2028C112.145 92.6233 111.711 92.9337 111.139 93.1338C111.922 93.1997 112.527 93.4428 112.955 93.8632C113.396 94.2827 113.638 94.846 113.679 95.5531C113.712 96.1215 113.636 96.6128 113.451 97.0269C113.279 97.4263 113.014 97.7617 112.654 98.0329C112.294 98.3042 111.854 98.5105 111.333 98.652C110.827 98.7926 110.255 98.8814 109.617 98.9184L105.811 99.139L105.186 88.3458ZM115.929 87.7231L117.156 87.652L117.679 96.6775L123.748 87.2698L124.934 87.2011L125.559 97.9943L124.332 98.0654L123.808 89.0191L117.761 98.4463L116.555 98.5162L115.929 87.7231ZM134.067 92.5976L132.798 92.6711L129.338 97.7752L127.883 97.8596L131.748 92.1895L127.174 87.0712L128.63 86.9869L132.675 91.6142L134.006 91.537L133.725 86.6915L134.972 86.6192L135.253 91.4647L136.584 91.3875L140.109 86.3214L141.502 86.2407L137.567 91.7896L142.086 97.0362L140.589 97.123L136.583 92.4517L135.315 92.5253L135.598 97.4123L134.35 97.4847L134.067 92.5976ZM147.618 86.7625C146.661 86.818 145.854 87.1778 145.197 87.8418C144.553 88.4912 144.19 89.4303 144.109 90.6592L151.034 90.2578C151.039 89.6315 150.952 89.094 150.773 88.6453C150.594 88.1828 150.349 87.8075 150.04 87.5193C149.732 87.2312 149.365 87.0299 148.941 86.9154C148.53 86.7862 148.089 86.7352 147.618 86.7625ZM152.298 95.5053C151.966 95.775 151.502 96.0592 150.907 96.358C150.326 96.6421 149.557 96.8119 148.6 96.8673C146.867 96.9678 145.501 96.5532 144.501 95.6235C143.515 94.693 142.97 93.3404 142.868 91.5658C142.817 90.6924 142.896 89.9018 143.106 89.1942C143.329 88.4857 143.656 87.8825 144.086 87.3846C144.515 86.8728 145.028 86.4745 145.623 86.1896C146.218 85.8908 146.869 85.7209 147.576 85.6799C148.297 85.6381 148.956 85.7252 149.552 85.941C150.162 86.1421 150.676 86.481 151.093 86.9576C151.523 87.4195 151.836 88.0134 152.031 88.7394C152.239 89.4507 152.301 90.2886 152.218 91.2533L144.129 91.7222C144.251 93.1201 144.701 94.1651 145.479 94.8573C146.255 95.5357 147.295 95.8371 148.599 95.7615C149.389 95.7157 150.047 95.5593 150.574 95.2922C151.101 95.0252 151.544 94.7422 151.902 94.4432L152.298 95.5053ZM162.29 90.7738L156.135 91.1306L156.429 96.2048L155.202 96.276L154.576 85.4828L155.803 85.4117L156.073 90.07L162.229 89.7132L161.959 85.0549L163.207 84.9825L163.832 95.7757L162.585 95.848L162.29 90.7738ZM166.558 84.7882L167.785 84.7171L168.309 93.7426L174.378 84.335L175.563 84.2663L176.189 95.0594L174.962 95.1305L174.437 86.0843L168.39 95.5115L167.184 95.5814L166.558 84.7882ZM183.199 84.7C182.242 84.7555 181.435 85.1152 180.778 85.7793C180.134 86.4287 179.771 87.3678 179.689 88.5967L186.615 88.1953C186.62 87.569 186.533 87.0315 186.354 86.5828C186.174 86.1203 185.93 85.745 185.621 85.4568C185.312 85.1687 184.946 84.9674 184.522 84.8528C184.111 84.7236 183.67 84.6727 183.199 84.7ZM187.879 93.4428C187.546 93.7125 187.083 93.9967 186.488 94.2955C185.907 94.5796 185.137 94.7493 184.181 94.8048C182.448 94.9053 181.081 94.4906 180.082 93.5609C179.096 92.6304 178.551 91.2779 178.448 89.5033C178.398 88.6299 178.477 87.8393 178.686 87.1316C178.91 86.4232 179.236 85.82 179.667 85.3221C180.096 84.8103 180.608 84.412 181.204 84.1271C181.799 83.8283 182.45 83.6584 183.157 83.6174C183.878 83.5756 184.536 83.6626 185.133 83.8784C185.743 84.0796 186.257 84.4184 186.674 84.895C187.104 85.357 187.416 85.9509 187.612 86.6769C187.82 87.3882 187.882 88.2261 187.799 89.1908L179.709 89.6597C179.832 91.0576 180.282 92.1026 181.06 92.7948C181.836 93.4731 182.876 93.7745 184.179 93.699C184.97 93.6532 185.628 93.4968 186.155 93.2297C186.682 92.9627 187.125 92.6797 187.483 92.3807L187.879 93.4428Z" fill="white"/>
</g>
<defs>
<filter id="filter0_dddd_207_135" x="0.0976562" y="0.205811" width="244.466" height="230.733" filterUnits="userSpaceOnUse" color-interpolation-filters="sRGB">
<feFlood flood-opacity="0" result="BackgroundImageFix"/>
<feColorMatrix in="SourceAlpha" type="matrix" values="0 0 0 0 0 0 0 0 0 0 0 0 0 0 0 0 0 0 127 0" result="hardAlpha"/>
<feOffset dy="5"/>
<feGaussianBlur stdDeviation="5.5"/>
<feColorMatrix type="matrix" values="0 0 0 0 0.0235294 0 0 0 0 0.321569 0 0 0 0 0.635294 0 0 0 0.2 0"/>
<feBlend mode="normal" in2="BackgroundImageFix" result="effect1_dropShadow_207_135"/>
<feColorMatrix in="SourceAlpha" type="matrix" values="0 0 0 0 0 0 0 0 0 0 0 0 0 0 0 0 0 0 127 0" result="hardAlpha"/>
<feOffset dy="20"/>
<feGaussianBlur stdDeviation="10"/>
<feColorMatrix type="matrix" values="0 0 0 0 0.0235294 0 0 0 0 0.321569 0 0 0 0 0.635294 0 0 0 0.17 0"/>
<feBlend mode="normal" in2="effect1_dropShadow_207_135" result="effect2_dropShadow_207_135"/>
<feColorMatrix in="SourceAlpha" type="matrix" values="0 0 0 0 0 0 0 0 0 0 0 0 0 0 0 0 0 0 127 0" result="hardAlpha"/>
<feOffset dy="45"/>
<feGaussianBlur stdDeviation="13.5"/>
<feColorMatrix type="matrix" values="0 0 0 0 0.0235294 0 0 0 0 0.321569 0 0 0 0 0.635294 0 0 0 0.1 0"/>
<feBlend mode="normal" in2="effect2_dropShadow_207_135" result="effect3_dropShadow_207_135"/>
<feColorMatrix in="SourceAlpha" type="matrix" values="0 0 0 0 0 0 0 0 0 0 0 0 0 0 0 0 0 0 127 0" result="hardAlpha"/>
<feOffset dy="79"/>
<feGaussianBlur stdDeviation="16"/>
<feColorMatrix type="matrix" values="0 0 0 0 0.0235294 0 0 0 0 0.321569 0 0 0 0 0.635294 0 0 0 0.03 0"/>
<feBlend mode="normal" in2="effect3_dropShadow_207_135" result="effect4_dropShadow_207_135"/>
<feBlend mode="normal" in="SourceGraphic" in2="effect4_dropShadow_207_135" result="shape"/>
</filter>
</defs>
</svg>
