<svg width="124" height="77" viewBox="0 0 124 77" fill="none" xmlns="http://www.w3.org/2000/svg">
<path d="M38.0415 8.03552C38.2189 8.15408 38.3933 8.28176 38.5676 8.40336L39.2863 7.86528C39.7583 7.53089 40.2334 7.19953 40.7115 6.87729C40.2598 6.62232 39.8294 6.33053 39.4246 6.00482L39.3374 5.92578C38.7089 6.53805 38.0343 7.1001 37.3198 7.60689C37.5664 7.74672 37.8039 7.8896 38.0415 8.03552Z" fill="#FF9143"/>
<path d="M45.3389 1.20448C44.6473 0.502242 44.0309 0.176965 43.4657 0.198245C42.3772 0.240804 41.4571 1.41423 40.7986 2.17423C39.638 3.49662 38.6247 4.8646 37.007 5.64284C36.2621 5.9886 35.4946 6.28214 34.7098 6.52139C35.2726 6.6581 35.8198 6.85372 36.3425 7.10506C37.2508 6.58857 38.2015 6.15224 39.184 5.80091C38.8462 5.51963 38.5433 5.1981 38.2819 4.84332C39.3165 5.04801 40.311 5.42285 41.2256 5.95291L41.7007 6.23259C41.872 6.12315 42.0404 6.00763 42.2148 5.89819C43.2104 5.26397 44.2426 4.69042 45.3058 4.18061C44.4764 5.03283 43.5979 5.83475 42.6749 6.58219L42.4734 6.74027L42.5335 6.77979C42.9747 7.08408 43.3829 7.4346 43.7513 7.82554C43.2087 7.80815 42.6721 7.70559 42.1607 7.52154C42.0104 7.4729 41.86 7.40906 41.7157 7.34826C41.1143 7.8225 40.503 8.28559 39.8815 8.73753C39.7282 8.85001 39.5809 8.95641 39.4125 9.06585C39.4486 9.09624 39.4907 9.1236 39.5267 9.15704C40.0164 9.56602 40.452 10.037 40.8227 10.5585C40.0611 10.3184 39.3257 10.0006 38.6277 9.61C37.8429 10.145 37.0401 10.6527 36.2223 11.13C36.6666 11.6059 37.0476 12.1383 37.3558 12.7138C36.7742 12.4432 36.216 12.1239 35.687 11.7593C35.5999 11.7015 35.5187 11.6377 35.4345 11.5799C34.9173 11.8839 34.3941 12.1423 33.8559 12.4037C34.2318 12.0146 34.6196 11.6437 35.0135 11.282C34.7309 11.0722 34.4543 10.8594 34.1776 10.6375C33.901 10.4156 33.6454 10.1785 33.3838 9.94136C32.7399 10.2599 32.0724 10.5272 31.3873 10.7409C31.8384 10.2663 32.3239 9.82628 32.8396 9.42456C32.3614 8.95375 31.9267 8.4399 31.5407 7.88938C32.1528 8.09543 32.7391 8.37293 33.2876 8.71625C33.3748 8.76793 33.453 8.82873 33.5402 8.88345C34.0874 8.47609 34.6497 8.09609 35.221 7.7313L35.6179 7.50026C35.2742 7.19575 34.9526 6.86658 34.6557 6.51531C33.5101 6.88618 32.3465 7.21146 31.237 7.64922C29.9614 8.18198 28.7508 8.86132 27.6288 9.67384C24.3193 12.0227 22.4611 15.9443 22.0542 21.4385C22.3877 20.4004 22.8842 19.4233 23.5245 18.5445C24.1393 17.7002 24.8821 16.9595 25.7255 16.3496C26.7279 15.6392 27.8481 15.1162 29.033 14.8053C31.5587 14.1122 34.2197 13.9632 36.6883 13.0938C39.0066 12.2761 41.0903 10.9111 42.9846 9.3516C44.8789 7.7921 46.0605 5.74315 46.1567 3.79757C46.2018 2.72446 45.9102 1.77295 45.3389 1.20448Z" fill="#FF9143"/>
<path d="M34.3589 9.46753C34.5213 9.58913 34.6866 9.71073 34.843 9.83537C35.1437 10.0998 35.4443 10.3734 35.745 10.6592C36.3805 10.11 37.0279 9.579 37.6874 9.06626L37.4649 8.92946C37.1221 8.70146 36.7854 8.45826 36.4546 8.20898C36.2291 8.36098 36.0066 8.51298 35.7781 8.65586C35.311 8.93959 34.838 9.21015 34.3589 9.46753Z" fill="#FF9143"/>
<path d="M12.5992 25.6373L5.93613 25.6373L7.6019 24.8652L7.6019 21.5395L19.4457 21.5395L19.4457 17.1072L2.73389 17.1072L2.73389 40.0681L12.5992 40.0681C17.0733 40.0681 21.2949 38.5481 21.2949 32.8482C21.2949 27.1482 17.0733 25.6373 12.5992 25.6373ZM12.6293 35.7361L5.93613 35.7361L6.94341 35.2771C8.27242 33.7571 8.27242 31.9331 6.94341 30.4131L5.94215 29.9541L12.6293 29.9541C14.5416 29.9541 16.3307 30.3767 16.3307 32.836C16.3307 35.2953 14.5416 35.7361 12.6293 35.7361Z" fill="white"/>
<path d="M35.436 16.6484C27.3928 16.6484 23.3667 22.3605 23.3667 28.5864C23.3667 34.8123 27.3928 40.5244 35.436 40.5244C43.4792 40.5244 47.5053 34.8123 47.5053 28.5864C47.5053 22.3605 43.4822 16.6484 35.436 16.6484ZM36.1727 35.9371L35.442 37.5635L34.7144 35.9371C30.4507 35.6057 28.3279 32.4229 28.3279 28.5864C28.3279 24.75 30.4507 21.5702 34.6963 21.2358L35.424 19.6124L36.1546 21.2358C40.3642 21.5702 42.487 24.7712 42.487 28.5864C42.487 32.4016 40.3822 35.6057 36.1727 35.9371Z" fill="white"/>
<path d="M60.9544 25.6376L54.168 25.6376L55.9541 24.8229L55.9541 21.5397L67.8009 21.5397L67.8009 17.1074L51.1011 17.1074L51.1011 40.0683L60.9544 40.0683C65.4345 40.0683 69.6501 38.5483 69.6501 32.8484C69.6501 27.1485 65.4345 25.6376 60.9544 25.6376ZM60.9905 35.7364L54.168 35.7364L55.3858 35.177C56.5885 33.7148 56.5885 31.982 55.3858 30.5198L54.168 29.9665L60.9905 29.9665C62.9088 29.9665 64.6918 30.3891 64.6918 32.8484C64.6918 35.3077 62.9088 35.7364 60.9905 35.7364Z" fill="white"/>
<path d="M81.5503 17.1074L72.9839 17.1074L72.9839 40.0683L77.8579 40.0683L77.8579 33.3348L76.0538 32.5079L81.5413 32.5079C87.0317 32.5079 91.3404 30.7356 91.3404 24.8046C91.3404 18.8736 87.0407 17.1074 81.5503 17.1074ZM81.7758 28.1972L76.0629 28.1972L77.2295 27.6531C78.5585 25.8291 78.5585 23.7923 77.2295 21.9835L76.0629 21.4394L81.7758 21.4394C84.2835 21.4394 86.3882 22.096 86.3882 24.8138C86.3882 27.5315 84.2835 28.1972 81.7758 28.1972Z" fill="white"/>
<path d="M103.191 24.6587L97.7035 24.6405L99.5076 23.8106L99.5076 17.1074L94.6245 17.1074L94.6245 40.0683L103.191 40.0683C108.672 40.0683 112.987 38.296 112.987 32.359C112.987 26.4219 108.672 24.683 103.191 24.6587ZM103.413 35.7364L97.7005 35.7364L98.8671 35.1892C100.196 33.3834 100.196 31.3375 98.8671 29.5227L97.7005 28.9755L103.413 28.9755C105.915 28.9755 108.026 29.6716 108.026 32.359C108.026 35.0463 105.915 35.7364 103.413 35.7364Z" fill="white"/>
<path d="M119.7 17.1074L114.835 17.1074L114.835 40.0653L119.7 40.0653L119.7 17.1074Z" fill="white"/>
<path d="M2.84212 49.0054C2.70989 46.5529 4.58384 44.4542 7.03566 44.3091L115.194 37.907C117.703 37.7584 119.84 39.71 119.919 42.2223L120.606 64.0227C120.683 66.4479 118.808 68.49 116.385 68.6206L8.68306 74.4276C6.22136 74.5603 4.11816 72.6723 3.98543 70.2106L2.84212 49.0054Z" fill="#FF9143"/>
<path d="M23.595 56.1242L19.7086 56.3495L20.0773 62.7091L19.2755 62.7555L18.8667 55.7029L24.3566 55.3847L24.7654 62.4373L23.9637 62.4838L23.595 56.1242Z" fill="white"/>
<path d="M30.2677 61.5321C30.6301 61.511 30.9571 61.4285 31.2487 61.2843C31.5493 61.1396 31.8013 60.9387 32.0045 60.6815C32.2163 60.4147 32.3751 60.0964 32.4809 59.7267C32.5862 59.3479 32.625 58.9185 32.5971 58.4383C32.5693 57.9582 32.4815 57.5406 32.3336 57.1856C32.1853 56.8215 31.9908 56.5237 31.7501 56.2923C31.518 56.0512 31.2442 55.8762 30.9289 55.7672C30.6226 55.6577 30.2882 55.6135 29.9259 55.6345C29.5635 55.6555 29.2274 55.7386 28.9177 55.8838C28.6171 56.0285 28.3608 56.2342 28.1491 56.501C27.9368 56.7587 27.778 57.077 27.6727 57.4558C27.5668 57.8255 27.5278 58.2504 27.5557 58.7306C27.5835 59.2107 27.6716 59.6328 27.82 59.9969C27.9678 60.3519 28.1623 60.6497 28.4035 60.8902C28.6442 61.1217 28.9222 61.2919 29.2375 61.4009C29.562 61.5093 29.9054 61.5531 30.2677 61.5321ZM30.391 62.2475C29.784 62.2827 29.2502 62.1682 28.7895 61.9041C28.3283 61.6308 27.9599 61.2341 27.6843 60.7138L27.9135 64.6681L27.1118 64.7146L26.5635 55.2568L27.2837 55.215L27.4415 56.7602L27.443 56.7874C27.6471 56.2302 27.9624 55.7892 28.3889 55.4645C28.8246 55.1393 29.3595 54.9583 29.9936 54.9216C30.4375 54.8958 30.859 54.9532 31.258 55.0937C31.6564 55.2251 32.0096 55.4364 32.3173 55.7277C32.6245 56.0098 32.8731 56.3772 33.0629 56.8297C33.2613 57.2727 33.3778 57.7932 33.4125 58.3911C33.4471 58.989 33.3918 59.5239 33.2464 59.9959C33.1006 60.4589 32.8916 60.8528 32.6196 61.1776C32.3475 61.5024 32.0169 61.7579 31.6278 61.9441C31.2472 62.1206 30.8349 62.2218 30.391 62.2475Z" fill="white"/>
<path d="M38.1537 61.7976C37.6736 61.8254 37.225 61.7696 36.8079 61.6301C36.3907 61.4907 36.0238 61.2757 35.707 60.985C35.3896 60.6852 35.1318 60.3139 34.9334 59.8709C34.7435 59.4183 34.6318 58.9021 34.5982 58.3223C34.5646 57.7425 34.6162 57.2214 34.753 56.759C34.8989 56.2961 35.1124 55.902 35.3935 55.5766C35.674 55.2422 36.0134 54.9817 36.4116 54.795C36.8099 54.6083 37.249 54.501 37.7292 54.4732C38.2093 54.4453 38.6579 54.5011 39.0751 54.6406C39.5012 54.7795 39.873 54.9988 40.1903 55.2985C40.5071 55.5892 40.7647 55.9561 40.9631 56.399C41.1615 56.842 41.2775 57.3534 41.3111 57.9332C41.3447 58.513 41.2888 59.0389 41.1435 59.5109C40.9976 59.9738 40.7844 60.3725 40.5038 60.7069C40.2227 61.0323 39.8785 61.2885 39.4713 61.4758C39.0731 61.6625 38.6339 61.7697 38.1537 61.7976ZM38.112 61.0773C38.4744 61.0563 38.8059 60.9735 39.1065 60.8288C39.4163 60.6836 39.6773 60.4821 39.8896 60.2244C40.1019 59.9667 40.2609 59.653 40.3668 59.2832C40.4811 58.9039 40.5241 58.4697 40.4958 57.9805C40.4674 57.4913 40.3748 57.0694 40.2179 56.7149C40.0695 56.3509 39.875 56.0531 39.6344 55.8216C39.3932 55.5811 39.1106 55.4111 38.7867 55.3117C38.4714 55.2028 38.1325 55.1588 37.7701 55.1798C37.4078 55.2008 37.0762 55.2836 36.7756 55.4283C36.4744 55.5639 36.2179 55.7651 36.0061 56.0319C35.7938 56.2897 35.635 56.6079 35.5297 56.9867C35.4239 57.3564 35.3852 57.7859 35.4135 58.2751C35.4419 58.7643 35.5303 59.1909 35.6786 59.555C35.8264 59.91 36.0207 60.2033 36.2614 60.4347C36.502 60.6662 36.78 60.8364 37.0954 60.9454C37.4108 61.0544 37.7496 61.0983 38.112 61.0773Z" fill="white"/>
<path d="M47.2668 54.752L44.2093 54.9292C44.2262 55.6918 44.2344 56.3821 44.2339 57.0003C44.2329 57.6093 44.2098 58.1515 44.1646 58.6268C44.128 59.0925 44.0605 59.4963 43.9621 59.8383C43.8723 60.1708 43.7426 60.4419 43.573 60.6517L47.5953 60.4185L47.2668 54.752ZM48.6818 61.0509L42.9337 61.3841L42.9552 63.4008L42.2485 63.4417L42.0918 60.7376L42.581 60.7092C42.8364 60.5672 43.0271 60.3289 43.1531 59.9943C43.2877 59.6502 43.3805 59.2131 43.4316 58.6829C43.4821 58.1437 43.4997 57.5064 43.4844 56.771C43.4781 56.0351 43.4617 55.2044 43.4353 54.2787L48.0284 54.0125L48.397 60.3721L49.4434 60.3114L49.6001 63.0156L48.9071 63.0558L48.6818 61.0509Z" fill="white"/>
<path d="M51.3319 54.5164L51.4689 56.8808L53.1404 56.7839C53.6296 56.7556 54.0179 56.6331 54.3053 56.4164C54.5922 56.1907 54.7238 55.8741 54.7001 55.4664C54.6749 55.0316 54.5172 54.7407 54.2269 54.594C53.9366 54.4472 53.5333 54.3887 53.0169 54.4187L51.3319 54.5164ZM51.5068 57.5331L51.6604 60.1829L53.3997 60.0821C53.6806 60.0658 53.9329 60.0284 54.1568 59.97C54.3897 59.9111 54.5848 59.827 54.7421 59.7179C54.9079 59.5993 55.0314 59.4557 55.1125 59.2874C55.1931 59.1101 55.2261 58.8945 55.2114 58.6409C55.183 58.1517 55.0048 57.8211 54.6767 57.6493C54.3481 57.4684 53.8667 57.3963 53.2325 57.433L51.5068 57.5331ZM50.49 53.8698L52.936 53.728C53.7422 53.6813 54.3619 53.7862 54.7949 54.0429C55.2279 54.2996 55.462 54.7314 55.4972 55.3384C55.5213 55.7551 55.4326 56.1057 55.2309 56.3901C55.0378 56.6649 54.7541 56.8676 54.3799 56.9984C54.8914 57.0415 55.2869 57.2003 55.5665 57.475C55.8551 57.7491 56.0127 58.1172 56.0395 58.5792C56.061 58.9507 56.0115 59.2717 55.8908 59.5423C55.7787 59.8033 55.6051 60.0224 55.3699 60.1997C55.1348 60.3769 54.8472 60.5117 54.5071 60.6042C54.1761 60.6961 53.8023 60.7541 53.3855 60.7783L50.8988 60.9224L50.49 53.8698Z" fill="white"/>
<path d="M57.51 53.4629L58.3117 53.4164L58.6536 59.314L62.6194 53.1667L63.394 53.1218L63.8028 60.1744L63.001 60.2209L62.6584 54.3097L58.707 60.4698L57.9188 60.5155L57.51 53.4629Z" fill="white"/>
<path d="M69.362 56.648L68.5331 56.6961L66.2722 60.0313L65.321 60.0864L67.8468 56.3814L64.8578 53.0369L65.8091 52.9818L68.4522 56.0054L69.3219 55.955L69.1383 52.7888L69.9537 52.7415L70.1372 55.9077L71.0069 55.8573L73.3101 52.547L74.2206 52.4942L71.6493 56.12L74.6022 59.5484L73.6238 59.6051L71.0063 56.5527L70.1774 56.6008L70.3625 59.7942L69.5471 59.8414L69.362 56.648Z" fill="white"/>
<path d="M78.2166 52.8352C77.5915 52.8714 77.0643 53.1065 76.635 53.5404C76.2142 53.9648 75.9771 54.5784 75.9236 55.3814L80.4487 55.1191C80.4522 54.7099 80.3955 54.3587 80.2786 54.0655C80.161 53.7633 80.0014 53.518 79.7996 53.3297C79.5978 53.1415 79.3584 53.0099 79.0814 52.9351C78.8129 52.8506 78.5246 52.8174 78.2166 52.8352ZM81.2747 58.5481C81.0576 58.7242 80.7548 58.91 80.3662 59.1052C79.9861 59.2908 79.4835 59.4018 78.8584 59.438C77.726 59.5037 76.8331 59.2327 76.1798 58.6252C75.5356 58.0172 75.1798 57.1334 75.1126 55.9738C75.0795 55.4031 75.1314 54.8865 75.2682 54.4241C75.4141 53.9612 75.6276 53.567 75.9087 53.2417C76.1892 52.9073 76.5241 52.647 76.9133 52.4608C77.3019 52.2656 77.7272 52.1546 78.1892 52.1278C78.6603 52.1005 79.0908 52.1573 79.4808 52.2984C79.8792 52.4298 80.2147 52.6512 80.4873 52.9626C80.7684 53.2645 80.9727 53.6526 81.1002 54.1269C81.2362 54.5917 81.277 55.1393 81.2227 55.7696L75.9366 56.076C76.0168 56.9895 76.3109 57.6723 76.8189 58.1246C77.3263 58.5679 78.0058 58.7648 78.8574 58.7154C79.3738 58.6855 79.8042 58.5833 80.1486 58.4088C80.4929 58.2343 80.7822 58.0494 81.0163 57.854L81.2747 58.5481Z" fill="white"/>
<path d="M87.8041 55.4563L83.7818 55.6894L83.974 59.0051L83.1723 59.0516L82.7635 51.999L83.5652 51.9525L83.7417 54.9964L87.764 54.7633L87.5875 51.7194L88.4029 51.6721L88.8117 58.7247L87.9963 58.772L87.8041 55.4563Z" fill="white"/>
<path d="M90.593 51.5451L91.3947 51.4987L91.7366 57.3962L95.7024 51.249L96.477 51.2041L96.8858 58.2567L96.084 58.3031L95.7414 52.392L91.79 58.5521L91.0018 58.5977L90.593 51.5451Z" fill="white"/>
<path d="M101.466 51.4875C100.841 51.5237 100.314 51.7588 99.8846 52.1927C99.4638 52.6171 99.2267 53.2307 99.1733 54.0337L103.698 53.7714C103.702 53.3622 103.645 53.011 103.528 52.7178C103.411 52.4155 103.251 52.1703 103.049 51.982C102.847 51.7937 102.608 51.6622 102.331 51.5873C102.063 51.5029 101.774 51.4696 101.466 51.4875ZM104.524 57.2003C104.307 57.3765 104.004 57.5622 103.616 57.7575C103.236 57.9431 102.733 58.0541 102.108 58.0903C100.976 58.1559 100.083 57.885 99.4295 57.2775C98.7852 56.6695 98.4295 55.7857 98.3623 54.6261C98.3292 54.0554 98.3811 53.5388 98.5179 53.0764C98.6637 52.6135 98.8772 52.2193 99.1583 51.894C99.4389 51.5596 99.7738 51.2993 100.163 51.1131C100.552 50.9179 100.977 50.8069 101.439 50.7801C101.91 50.7528 102.34 50.8096 102.73 50.9506C103.129 51.0821 103.464 51.3035 103.737 51.6149C104.018 51.9168 104.222 52.3049 104.35 52.7792C104.486 53.244 104.527 53.7916 104.472 54.4219L99.1863 54.7283C99.2665 55.6417 99.5606 56.3246 100.069 56.7769C100.576 57.2201 101.256 57.4171 102.107 57.3677C102.623 57.3378 103.054 57.2356 103.398 57.0611C103.743 56.8866 104.032 56.7017 104.266 56.5063L104.524 57.2003Z" fill="white"/>
</svg>
