<svg width="24" height="24" viewBox="0 0 24 24" fill="none" xmlns="http://www.w3.org/2000/svg">
<path d="M21.752 8.55078C21.352 7.55078 20.952 6.65078 20.802 6.00078L20.402 4.35078L19.452 5.80078C18.402 7.40078 17.652 8.85078 17.152 10.2008C16.302 8.55078 15.252 5.60078 15.252 1.50078V0.300781L14.152 0.900781C10.052 3.00078 7.00198 6.15078 5.40198 9.85078C5.05198 9.00078 4.70198 8.20078 4.55198 7.75078L4.10198 6.35078L3.25198 7.50078C0.201979 11.5508 -0.598021 16.5008 1.25198 19.8008C2.50198 22.0508 4.75198 23.2508 7.65198 23.1508L8.95198 23.1008L8.25198 22.0008C6.00198 18.7508 7.30198 17.0008 8.75198 14.9508C8.80198 14.9008 8.80198 14.8508 8.85198 14.8008C9.25198 15.1508 9.50198 15.5508 9.70198 16.0508C9.95198 16.8508 9.90198 17.7008 9.85198 18.3508L9.70198 19.8008L10.952 19.0508C12.802 17.9508 12.802 15.5508 12.852 13.4008C12.852 12.9508 12.852 12.5508 12.902 12.1508C13.552 13.2008 14.202 14.0508 14.802 14.8008C15.352 15.5008 15.802 16.1008 16.002 16.5508C16.802 18.3008 16.552 20.2008 15.152 22.2508L14.152 23.7508L15.952 23.3508C16.252 23.3008 18.902 22.7008 20.052 22.0508C25.952 18.6008 23.452 12.5508 21.752 8.55078Z" fill="#FFA15D"/>
</svg>
