<svg width="324" height="171" viewBox="0 0 324 171" fill="none" xmlns="http://www.w3.org/2000/svg">
<path opacity="0.3" d="M132.31 108.83L133.128 110.088L133.065 110.128L132.999 110.163L132.31 108.83ZM138.463 81.5489L137.236 82.4105L138.463 81.5489ZM96.1594 135.322L94.9137 136.157L94.8527 136.066L94.8055 135.968L96.1594 135.322ZM238.904 146.779L238.158 145.477L238.19 145.459L238.223 145.442L238.904 146.779ZM315.692 65.9413C316.442 65.5876 317.336 65.9082 317.689 66.6573L323.453 78.865C323.807 79.6141 323.486 80.5081 322.737 80.8618C321.988 81.2155 321.094 80.895 320.74 80.1459L315.617 69.2946L304.766 74.4181C304.016 74.7718 303.122 74.4512 302.769 73.7021C302.415 72.953 302.736 72.059 303.485 71.7053L315.692 65.9413ZM4.14042 0.510961C4.10034 1.50232 4.06718 2.50648 4.04125 3.52246L1.04222 3.44591C1.06854 2.41513 1.10218 1.39609 1.14287 0.389751L4.14042 0.510961ZM3.97416 9.61512C3.98067 11.6132 4.01495 13.6463 4.07895 15.7081L1.08039 15.8012C1.01553 13.7115 0.980774 11.6506 0.974172 9.62489L3.97416 9.61512ZM4.35162 21.7959C4.46918 23.8037 4.61531 25.8314 4.79168 27.8735L1.80281 28.1316C1.62401 26.0615 1.47589 24.0062 1.35675 21.9713L4.35162 21.7959ZM5.40146 33.9355C5.63227 35.9425 5.89316 37.9576 6.18566 39.9758L3.21668 40.4061C2.91985 38.358 2.65518 36.3137 2.4211 34.2782L5.40146 33.9355ZM7.15117 45.9874C7.50365 47.9827 7.88842 49.9757 8.30693 51.9617L5.3714 52.5803C4.9459 50.5611 4.55491 48.5358 4.19691 46.5093L7.15117 45.9874ZM9.66401 57.8887C10.1522 59.8587 10.6756 61.8163 11.2356 63.7566L8.35332 64.5886C7.78228 62.6102 7.24906 60.6158 6.75208 58.6103L9.66401 57.8887ZM13.0374 69.5511C13.6813 71.4776 14.3643 73.381 15.0877 75.256L12.2888 76.3359C11.5482 74.4164 10.8499 72.47 10.1921 70.5021L13.0374 69.5511ZM17.408 80.8517C18.2341 82.7076 19.104 84.5281 20.0193 86.3078L17.3515 87.6799C16.4093 85.8479 15.5151 83.9765 14.6672 82.0717L17.408 80.8517ZM22.9452 91.5899C23.9831 93.3299 25.0704 95.0205 26.2087 96.656L23.7465 98.3698C22.5661 96.6739 21.4408 94.9241 20.3687 93.1268L22.9452 91.5899ZM29.8311 101.455C31.1075 103.013 32.4392 104.507 33.8281 105.93L31.6813 108.025C30.2291 106.537 28.8396 104.979 27.5106 103.357L29.8311 101.455ZM38.206 110.013C39.7285 111.301 41.3116 112.512 42.957 113.638L41.2628 116.114C39.5304 114.928 37.8661 113.655 36.2679 112.303L38.206 110.013ZM48.0558 116.742C49.7929 117.675 51.5928 118.522 53.4577 119.275L52.3335 122.057C50.3666 121.262 48.468 120.369 46.636 119.385L48.0558 116.742ZM59.1025 121.211C60.9809 121.745 62.92 122.192 64.9214 122.545L64.3992 125.5C62.2984 125.128 60.2598 124.659 58.282 124.096L59.1025 121.211ZM70.8481 123.302C72.7867 123.457 74.7795 123.532 76.8279 123.519L76.8457 126.519C74.7134 126.532 72.6344 126.455 70.6076 126.292L70.8481 123.302ZM82.8243 123.247C84.7757 123.084 86.7739 122.847 88.8198 122.532L89.2756 125.497C87.1636 125.822 85.0967 126.068 83.0741 126.237L82.8243 123.247ZM94.808 121.418C96.7058 121.005 98.6419 120.529 100.617 119.987L101.411 122.88C99.3858 123.436 97.3976 123.925 95.4457 124.349L94.808 121.418ZM106.409 118.244C108.309 117.623 110.242 116.944 112.21 116.205L113.264 119.014C111.257 119.768 109.283 120.461 107.341 121.096L106.409 118.244ZM117.767 113.996C119.605 113.226 121.471 112.406 123.365 111.534L124.62 114.259C122.695 115.145 120.797 115.979 118.927 116.763L117.767 113.996ZM128.83 108.914C129.754 108.454 130.685 107.982 131.622 107.497L132.999 110.163C132.049 110.653 131.105 111.132 130.168 111.599L128.83 108.914ZM131.492 107.573C132.105 107.174 132.77 106.685 133.453 106.112L135.382 108.409C134.61 109.057 133.848 109.619 133.128 110.088L131.492 107.573ZM136.876 102.554C137.85 101.297 138.72 99.8921 139.382 98.3692L142.133 99.5647C141.358 101.348 140.352 102.966 139.248 104.391L136.876 102.554ZM140.613 93.7477C140.765 92.2475 140.688 90.6644 140.305 89.009L143.228 88.3328C143.687 90.3175 143.782 92.2319 143.598 94.0507L140.613 93.7477ZM138.547 84.5053C138.169 83.8184 137.733 83.1198 137.236 82.4105L139.691 80.6873C140.249 81.4817 140.742 82.2724 141.175 83.0587L138.547 84.5053ZM137.236 82.4105C136.71 81.6619 136.093 81.0474 135.397 80.5533L137.134 78.1072C138.111 78.8006 138.97 79.6601 139.691 80.6873L137.236 82.4105ZM130.303 78.9309C128.57 78.834 126.634 79.0578 124.564 79.5976L123.807 76.6947C126.113 76.0933 128.366 75.8178 130.471 75.9355L130.303 78.9309ZM118.975 81.6893C117.238 82.5262 115.48 83.5405 113.744 84.7167L112.061 82.2329C113.912 80.9794 115.796 79.8907 117.673 78.9865L118.975 81.6893ZM108.95 88.4376C107.455 89.7574 106.011 91.1934 104.649 92.7326L102.403 90.7443C103.848 89.1113 105.379 87.5883 106.965 86.1884L108.95 88.4376ZM100.919 97.5238C99.7875 99.1877 98.7591 100.934 97.8594 102.75L95.1712 101.418C96.135 99.4726 97.2336 97.6084 98.4385 95.8367L100.919 97.5238ZM95.5894 108.339C94.9831 110.239 94.5235 112.194 94.2337 114.194L91.2647 113.764C91.5793 111.592 92.0773 109.476 92.7314 107.427L95.5894 108.339ZM93.8917 120.177C93.9515 122.128 94.1807 124.114 94.5996 126.127L91.6626 126.738C91.2077 124.553 90.9583 122.393 90.8931 120.269L93.8917 120.177ZM96.312 131.894C96.6693 132.817 97.0691 133.745 97.5133 134.676L94.8055 135.968C94.3292 134.969 93.8993 133.972 93.5143 132.977L96.312 131.894ZM97.4051 134.486C97.9288 135.267 98.4969 136.064 99.1091 136.872L96.7177 138.683C96.072 137.831 95.4705 136.987 94.9137 136.157L97.4051 134.486ZM102.906 141.392C104.19 142.782 105.594 144.18 107.117 145.569L105.095 147.786C103.51 146.34 102.046 144.881 100.703 143.428L102.906 141.392ZM111.661 149.396C113.178 150.576 114.784 151.734 116.478 152.859L114.818 155.358C113.061 154.192 111.395 152.989 109.82 151.764L111.661 149.396ZM121.552 155.969C123.24 156.922 124.999 157.837 126.83 158.705L125.544 161.415C123.649 160.517 121.827 159.569 120.078 158.582L121.552 155.969ZM132.297 161.067C134.106 161.775 135.975 162.435 137.903 163.042L137.003 165.904C135.009 165.276 133.076 164.593 131.204 163.86L132.297 161.067ZM143.647 164.638C145.541 165.097 147.484 165.502 149.479 165.849L148.964 168.805C146.905 168.447 144.898 168.028 142.941 167.554L143.647 164.638ZM155.371 166.683C157.309 166.896 159.29 167.053 161.314 167.15L161.17 170.147C159.085 170.047 157.043 169.884 155.044 169.665L155.371 166.683ZM167.283 167.261C169.237 167.241 171.228 167.165 173.255 167.03L173.454 170.023C171.371 170.162 169.325 170.24 167.315 170.261L167.283 167.261ZM179.209 166.473C181.15 166.239 183.123 165.952 185.127 165.609L185.635 168.565C183.582 168.918 181.559 169.212 179.567 169.451L179.209 166.473ZM190.998 164.456C192.908 164.034 194.846 163.561 196.809 163.034L197.586 165.932C195.58 166.47 193.599 166.954 191.645 167.385L190.998 164.456ZM202.555 161.363C204.425 160.776 206.317 160.142 208.231 159.458L209.241 162.283C207.29 162.98 205.36 163.627 203.453 164.225L202.555 161.363ZM213.837 157.335C215.664 156.605 217.509 155.831 219.375 155.009L220.584 157.755C218.687 158.59 216.81 159.378 214.951 160.121L213.837 157.335ZM224.846 152.491C226.623 151.638 228.416 150.743 230.226 149.806L231.606 152.469C229.769 153.421 227.949 154.329 226.145 155.195L224.846 152.491ZM235.502 146.975C236.383 146.486 237.269 145.987 238.158 145.477L239.649 148.08C238.748 148.597 237.851 149.103 236.957 149.599L235.502 146.975ZM238.223 145.442C239.088 145.001 240 144.522 240.953 144.004L242.385 146.64C241.41 147.17 240.475 147.662 239.585 148.115L238.223 145.442ZM246.373 140.909C248.066 139.897 249.839 138.799 251.676 137.616L253.3 140.138C251.436 141.339 249.634 142.455 247.912 143.484L246.373 140.909ZM256.873 134.154C258.541 133.007 260.243 131.8 261.97 130.535L263.742 132.956C261.992 134.238 260.265 135.462 258.574 136.626L256.873 134.154ZM266.951 126.776C268.567 125.519 270.193 124.217 271.823 122.869L273.734 125.182C272.081 126.548 270.431 127.87 268.793 129.144L266.951 126.776ZM276.578 118.816C278.126 117.455 279.669 116.055 281.2 114.618L283.253 116.806C281.697 118.266 280.13 119.687 278.56 121.069L276.578 118.816ZM285.677 110.274C287.138 108.807 288.58 107.307 289.999 105.774L292.2 107.812C290.756 109.372 289.289 110.899 287.803 112.391L285.677 110.274ZM294.141 101.12C295.489 99.5436 296.806 97.9374 298.087 96.3027L300.448 98.1529C299.14 99.8227 297.796 101.462 296.421 103.07L294.141 101.12ZM301.81 91.3191C303.012 89.6275 304.172 87.909 305.282 86.165L307.812 87.7757C306.674 89.5648 305.486 91.3258 304.255 93.0572L301.81 91.3191ZM308.467 80.8403C309.48 79.0315 310.436 77.1984 311.329 75.3423L314.033 76.6434C313.111 78.5578 312.126 80.4458 311.084 82.3062L308.467 80.8403ZM313.825 69.6807C314.208 68.723 314.574 67.7599 314.921 66.7915L317.745 67.804C317.385 68.8073 317.007 69.8045 316.61 70.7952L313.825 69.6807Z" fill="white"/>
</svg>
