<svg width="45" height="45" viewBox="0 0 45 45" fill="none" xmlns="http://www.w3.org/2000/svg">
<g clip-path="url(#clip0_1_5713)">
<path d="M12.9976 6.74156C12.5493 6.81187 11.8374 7.32164 11.5562 7.76988C11.3452 8.12144 11.2925 8.3148 11.2661 8.84215C11.2222 9.64195 11.3452 10.0287 11.811 10.5296C12.5317 11.3207 10.8882 11.2504 28.106 11.2504C44.937 11.2504 43.6011 11.3031 44.2954 10.6615C44.8052 10.2132 44.9985 9.765 44.9985 9.02672C44.9985 8.06871 44.6294 7.41832 43.8384 6.97887L43.3726 6.72398L28.2993 6.7152C20.0112 6.70641 13.1206 6.72398 12.9976 6.74156Z" fill="#2B4461"/>
<path d="M1.46104 20.3462C0.204204 20.7944 -0.375874 22.3325 0.23936 23.563C0.511821 24.0903 1.04795 24.5474 1.56651 24.6968C2.02354 24.8198 42.9806 24.8198 43.4376 24.6968C43.9562 24.5474 44.4923 24.0903 44.7648 23.563C45.3976 22.2974 44.7384 20.6626 43.4376 20.3022C43.2179 20.2407 36.4239 20.2144 22.4581 20.2144C5.12608 20.2231 1.75108 20.2407 1.46104 20.3462Z" fill="#2B4461"/>
<path d="M21.4357 33.9876C20.0383 34.6995 19.7922 36.6683 20.9699 37.7054C21.673 38.3206 20.7678 38.2767 32.6506 38.2767H43.3732L43.7336 38.0833C44.5949 37.6263 44.9992 36.9583 44.9992 35.9915C44.9992 35.2532 44.8146 34.8138 44.3312 34.3479C43.6545 33.7063 44.5246 33.7503 32.6242 33.7503H21.9191L21.4357 33.9876Z" fill="#2B4461"/>
</g>
<defs>
<clipPath id="clip0_1_5713">
<rect width="45" height="45" fill="white"/>
</clipPath>
</defs>
</svg>
