<svg width="20" height="20" viewBox="0 0 20 20" fill="none" xmlns="http://www.w3.org/2000/svg">
<g clip-path="url(#clip0_1_2749)">
<path d="M10.1163 4.98243C10.5851 4.98243 10.9844 4.58312 10.9844 4.11436V1.56228C10.9844 1.09353 10.5851 0.685547 10.1163 0.685547C9.64757 0.685547 9.24826 1.09353 9.24826 1.56228V4.11436C9.24826 4.58312 9.64757 4.98243 10.1163 4.98243ZM6.21875 6.49284C6.55729 6.16298 6.55729 5.59874 6.22744 5.26888L4.45659 3.48068C4.12674 3.15083 3.5625 3.14214 3.23264 3.472C2.8941 3.80187 2.8941 4.3661 3.22396 4.69596L4.99479 6.48416C5.32466 6.82269 5.88889 6.82269 6.21875 6.49284ZM13.9271 6.56228C14.2569 6.89214 14.8299 6.89214 15.1597 6.56228L16.9392 4.77409C17.2691 4.44423 17.2691 3.87999 16.9392 3.54145C16.6093 3.21158 16.0451 3.22027 15.7066 3.55013L13.9271 5.33833C13.5972 5.66818 13.5972 6.23243 13.9271 6.56228ZM9.43056 16.5189C9.42188 16.9008 9.87326 17.031 10.125 16.7793L11.401 15.4859L12.8507 19.071C12.9375 19.2707 13.1285 19.3834 13.3455 19.3053L14.2309 18.9581C14.4479 18.8627 14.4913 18.6282 14.4046 18.446L12.868 14.9043L14.6997 14.8522C15.0729 14.8436 15.2552 14.4702 14.9861 14.1838L10.1597 9.25325C9.90799 9.00152 9.53472 9.1404 9.52604 9.50499L9.43056 16.5189ZM4.73437 10.3644C4.73437 9.89561 4.33507 9.49632 3.86632 9.49632H1.30556C0.836804 9.49632 0.4375 9.89561 0.4375 10.3644C0.4375 10.8331 0.836804 11.2324 1.30556 11.2324H3.86632C4.33507 11.2324 4.73437 10.8331 4.73437 10.3644ZM15.5069 10.3644C15.5069 10.8331 15.9062 11.2324 16.375 11.2324H18.9271C19.3958 11.2324 19.7951 10.8331 19.7951 10.3644C19.7951 9.89561 19.3958 9.49632 18.9271 9.49632H16.375C15.9062 9.49632 15.5069 9.89561 15.5069 10.3644ZM6.29688 14.1838C5.97569 13.8452 5.40278 13.8452 5.07291 14.1751L3.2934 15.946C2.95486 16.2758 2.95486 16.84 3.27604 17.1699C3.61458 17.5084 4.17881 17.5171 4.51736 17.1873L6.29688 15.4078C6.62674 15.0779 6.63541 14.5137 6.29688 14.1838Z" fill="#2B4461"/>
</g>
<defs>
<clipPath id="clip0_1_2749">
<rect width="20" height="20" fill="white"/>
</clipPath>
</defs>
</svg>
