<svg width="66" height="44" viewBox="0 0 66 44" fill="none" xmlns="http://www.w3.org/2000/svg">
<g clip-path="url(#clip0_207_2257)">
<path fill-rule="evenodd" clip-rule="evenodd" d="M39.2779 5.50232C39.428 5.6208 39.4537 5.83797 39.3362 5.98607C39.2177 6.13417 39.0005 6.16385 38.8504 6.04537C35.8162 3.74481 32.4118 2.44147 28.6598 2.12552C25.3038 1.84906 21.6723 2.3625 17.7771 3.6757C14.5218 4.7618 12.472 6.55874 11.7888 8.60258C11.0503 10.8143 11.9971 13.2432 14.6521 15.2377C17.2025 17.1828 20.7037 18.0023 24.0785 18.2491C28.3241 18.5552 32.3861 17.9529 34.2167 17.3605C36.5646 16.6002 38.178 15.5043 39.2848 14.3491C41.6851 11.851 41.7009 9.09626 41.7009 9.09626C41.6979 8.90867 41.851 8.75069 42.0415 8.75069C42.2331 8.74081 42.3901 8.89883 42.393 9.08643C42.393 9.08643 42.4947 12.1275 39.9424 14.9612C38.7862 16.2448 37.081 17.4889 34.5682 18.3874C32.3674 19.1674 27.0317 20.0758 21.8579 19.4241C18.8889 19.0489 15.9811 18.1505 13.7181 16.4818C10.3986 13.9937 9.37272 10.8636 10.3226 8.1089C11.145 5.71948 13.5137 3.55717 17.3476 2.35259C21.457 1.08877 25.2692 0.654307 28.7665 1.04925C32.6764 1.50344 36.1904 2.98454 39.2779 5.50232Z" fill="#FF8C3A"/>
<path fill-rule="evenodd" clip-rule="evenodd" d="M28.2634 4.52519C28.451 4.56469 28.5735 4.74247 28.5369 4.93007C28.5004 5.11767 28.3187 5.23613 28.1311 5.20651C26.4506 4.9498 24.938 5.18671 23.8114 5.6409C23.2388 5.87786 22.7787 6.17409 22.4627 6.49992C22.2386 6.72701 22.0994 6.96404 22.125 7.20101C22.1477 7.40835 22.3373 7.57621 22.6177 7.74406C22.753 7.82305 22.9682 7.80326 23.2259 7.80326C23.6416 7.79339 24.1382 7.73416 24.6783 7.67492C25.2974 7.61568 25.9688 7.53663 26.6412 7.51689C27.3551 7.48727 28.0699 7.5268 28.7285 7.65516C29.862 7.89212 30.8385 8.42526 31.4457 9.44225C31.8792 10.1828 31.8525 10.9135 31.4418 11.575C31.0597 12.1872 30.3181 12.7599 29.3436 13.1252C27.6849 13.7571 25.3715 13.8855 23.4945 12.9771C23.3197 12.8981 23.2388 12.6907 23.3158 12.5228C23.3918 12.3451 23.5952 12.2662 23.771 12.3353C25.172 12.8783 26.7765 12.7894 28.0877 12.3747C28.9911 12.0884 29.7474 11.6441 30.1582 11.1307C30.3892 10.8345 30.4633 10.5086 30.252 10.2025C29.8324 9.57062 29.1689 9.30409 28.4372 9.17573C27.7905 9.05725 27.0865 9.0671 26.3914 9.1066C25.6114 9.14609 24.8432 9.22504 24.1748 9.26454C23.1232 9.33365 22.2761 9.24477 21.8347 8.94856C21.1159 8.44501 20.801 7.87241 20.7753 7.29974C20.7486 6.7172 21.0083 6.09512 21.5978 5.58169C22.7757 4.55483 25.3478 3.82417 28.2634 4.52519Z" fill="#FF8C3A"/>
<path fill-rule="evenodd" clip-rule="evenodd" d="M30.2602 15.4656C30.3531 15.6334 30.2938 15.8408 30.1269 15.9297C29.9601 16.0284 29.7488 15.9692 29.656 15.8013C29.656 15.8013 29.3716 15.6236 28.8819 15.1497C28.794 15.0608 28.7101 14.972 28.6212 14.8535C28.5709 14.7943 28.5165 14.7251 28.4761 14.6461C28.3813 14.4684 28.3151 14.2709 28.249 14.0438C28.1542 13.7279 28.1157 13.4218 28.0328 13.0565C27.932 12.8886 27.9834 12.6813 28.1463 12.5826C28.3092 12.4838 28.5225 12.5332 28.6222 12.6911C28.9174 12.938 29.1652 13.1157 29.4042 13.3527C29.573 13.5107 29.7201 13.6686 29.8337 13.8464C29.884 13.9155 29.9166 13.9945 29.9492 14.0734C30.0045 14.2117 30.046 14.3301 30.0776 14.4486C30.2513 15.12 30.2602 15.4656 30.2602 15.4656ZM23.3467 5.12797C23.4692 5.27607 23.4484 5.49329 23.3013 5.62165C23.1542 5.74013 22.936 5.72039 22.8136 5.57228C22.545 5.44392 22.3367 5.39448 22.0869 5.24638C21.9447 5.16739 21.8074 5.07858 21.7008 4.9601C21.5912 4.83174 21.5349 4.68366 21.4678 4.53555C21.3483 4.26896 21.3098 4.05174 21.2101 3.79503C21.0758 3.6568 21.0758 3.43958 21.2101 3.30135C21.3454 3.17299 21.5645 3.17299 21.6998 3.30135C21.9723 3.40996 22.1856 3.46912 22.4542 3.61723C22.6072 3.69621 22.7484 3.78512 22.8758 3.9036C22.9241 3.95297 22.9597 4.01217 22.9952 4.06154C23.0495 4.16028 23.095 4.23934 23.1325 4.33808C23.2371 4.62441 23.2717 4.83176 23.3467 5.12797Z" fill="#FF8C3A"/>
<path fill-rule="evenodd" clip-rule="evenodd" d="M38.3309 18.3182C38.4988 18.2293 38.7091 18.2886 38.8009 18.4564C38.8937 18.6243 38.8325 18.8316 38.6647 18.9204C36.5705 20.1843 34.3746 21.0729 32.1609 21.6258C30.593 22.0109 29.0191 22.2381 27.4769 22.3072C26.1252 22.3664 24.7962 22.317 23.5205 22.1591C22.1609 21.9813 20.8586 21.6851 19.6461 21.3C17.3169 20.5496 15.3096 19.4536 13.8098 18.1701C11.8104 16.4521 10.7026 14.3885 10.8774 12.2755C10.8862 12.0879 11.0482 11.9398 11.2387 11.9497C11.4293 11.9596 11.5774 12.1175 11.5685 12.3051C11.5498 14.1712 12.6892 15.8695 14.5355 17.2617C15.9939 18.3675 17.9024 19.2463 20.0796 19.8584C21.2269 20.1843 22.4492 20.4311 23.721 20.599C24.9216 20.7471 26.1647 20.836 27.4384 20.836C28.9006 20.8261 30.3975 20.6978 31.9052 20.4312C34.0616 20.0362 36.2328 19.3747 38.3309 18.3182Z" fill="#FF8C3A"/>
<path fill-rule="evenodd" clip-rule="evenodd" d="M26.0671 21.2896C26.2231 21.181 26.4393 21.2206 26.5489 21.3687C26.6595 21.5267 26.622 21.7438 26.465 21.8525C24.8615 23.0669 22.1443 23.7186 19.1092 23.7482C17.4711 23.7778 15.7413 23.6099 14.0519 23.2644C11.8935 22.82 9.79735 22.0796 8.04874 21.0231C5.99601 19.7889 4.42907 18.1202 3.67967 16.1257C2.74266 13.5191 3.69054 10.9718 5.48654 9.12539C7.28255 7.26915 9.88721 6.12379 11.9923 6.29164C12.1838 6.30152 12.3299 6.46939 12.3201 6.65699C12.3102 6.84459 12.1473 6.99267 11.9567 6.9828C10.0679 6.9433 7.82066 8.12812 6.30703 9.87575C4.93361 11.4555 4.16742 13.5191 5.0284 15.6025C5.70277 17.2909 7.11766 18.6139 8.86429 19.6803C10.4786 20.6577 12.3852 21.3982 14.3649 21.8821C16.8027 22.4843 19.3353 22.7313 21.5381 22.5535C23.3706 22.4153 24.9691 22.0104 26.0671 21.2896Z" fill="#FF8C3A"/>
<path fill-rule="evenodd" clip-rule="evenodd" d="M26.3184 24.2333C26.5031 24.1839 26.6926 24.2925 26.743 24.4801C26.7924 24.6579 26.6828 24.8553 26.4981 24.9047C25.021 25.3786 23.229 25.7933 21.2947 26.0006C20.1385 26.129 18.9359 26.1783 17.7244 26.129C16.7262 26.0895 15.7221 25.9908 14.7416 25.7933C13.7424 25.5958 12.7659 25.2996 11.8398 24.9244C10.5671 24.4011 9.38518 23.71 8.35734 22.8312C6.88716 21.5674 5.72899 19.9185 5.06054 17.8154C4.99439 17.6377 5.08621 17.4304 5.26492 17.3711C5.44462 17.302 5.64308 17.3909 5.70924 17.5686C6.36386 19.1089 7.2989 20.3233 8.40868 21.2909C9.56192 22.298 10.9196 23.0089 12.3759 23.5224C13.2389 23.8285 14.1374 24.0654 15.0517 24.2431C15.966 24.4307 16.8941 24.569 17.8222 24.6578C18.9695 24.7664 20.1109 24.8059 21.2167 24.7862C23.0937 24.7467 24.8542 24.5492 26.3184 24.2333Z" fill="#FF8C3A"/>
<path fill-rule="evenodd" clip-rule="evenodd" d="M33.1023 22.969C33.2139 22.8209 33.4301 22.7814 33.5851 22.89C33.7411 22.9986 33.7767 23.2159 33.6651 23.3739C31.6756 26.3557 28.2474 28.1033 24.4056 28.755C22.9858 29.0018 21.5107 29.0809 20.0356 29.0216C19.063 28.9821 18.0885 28.8834 17.1337 28.7056C14.6466 28.2613 12.2739 27.4023 10.2893 26.2175C6.73976 24.1045 4.4175 20.9745 4.73148 17.2423C4.74135 17.0547 4.90525 16.9066 5.09581 16.9165C5.28637 16.9264 5.4325 17.0844 5.42263 17.2818C5.3624 20.1353 7.00635 22.4655 9.5024 24.1736C10.6152 24.9339 11.8987 25.5658 13.283 26.0792C14.5853 26.5531 15.9785 26.9086 17.4042 27.1555C18.2998 27.3036 19.2082 27.422 20.1175 27.4813C21.4949 27.5701 22.8723 27.5504 24.2091 27.3925C27.7972 26.9679 31.0812 25.6053 33.1023 22.969Z" fill="#FF8C3A"/>
<path fill-rule="evenodd" clip-rule="evenodd" d="M22.7667 27.8956C22.9523 27.8463 23.1389 27.9647 23.1824 28.1523C23.2248 28.3399 23.1093 28.5275 22.9227 28.567C20.3318 29.268 17.9079 29.6334 15.6715 29.7025C13.8972 29.7519 12.2434 29.6235 10.7298 29.3471C9.26058 29.0706 7.91975 28.6658 6.72899 28.1425C5.32299 27.5303 4.12039 26.7601 3.14586 25.9011C-1.02081 22.2183 -1.28937 16.9852 3.79653 13.8355C3.95648 13.7269 4.17074 13.7763 4.27638 13.9343C4.38203 14.0922 4.33759 14.3095 4.17862 14.4083C-0.00580266 17.3605 0.426653 21.7444 4.11544 24.7558C5.01788 25.4865 6.10596 26.148 7.36386 26.701C8.45982 27.1848 9.68021 27.5994 11.024 27.8956C12.4448 28.2215 13.995 28.419 15.6735 28.4782C17.8417 28.5473 20.2104 28.3893 22.7667 27.8956Z" fill="#FF8C3A"/>
<path fill-rule="evenodd" clip-rule="evenodd" d="M25.6197 29.5239C25.8023 29.4746 25.9949 29.5832 26.0492 29.761C26.1025 29.9485 25.9969 30.1361 25.8142 30.1953C23.9817 30.8075 21.7779 31.3308 19.428 31.5974C17.9992 31.7653 16.5202 31.8344 15.0441 31.785C13.8079 31.7456 12.5747 31.6171 11.38 31.3802C10.1389 31.1432 8.93921 30.7878 7.81856 30.3138C6.63767 29.8103 5.5417 29.1882 4.57408 28.4181C2.39794 26.6902 0.851732 24.2712 0.411368 20.9833C0.378785 20.7957 0.505166 20.618 0.693753 20.5785C0.881352 20.5488 1.06106 20.6771 1.09265 20.8647C1.53499 22.9481 2.44138 24.597 3.65288 25.9003C4.92755 27.2727 6.55868 28.2404 8.37443 28.9217C9.42597 29.3166 10.5387 29.6128 11.6841 29.8399C12.8097 30.0571 13.9639 30.2151 15.126 30.3138C16.5369 30.4224 17.9548 30.4422 19.3322 30.383C21.6248 30.2842 23.798 29.9781 25.6197 29.5239Z" fill="#FF8C3A"/>
<path fill-rule="evenodd" clip-rule="evenodd" d="M64.3095 26.4734C64.4289 26.6216 64.4052 26.8388 64.2561 26.9573C64.108 27.0758 63.8898 27.056 63.7704 26.9079C61.8944 24.6567 58.6706 22.9288 54.9601 22.0007C51.7532 21.1911 48.1789 20.9837 44.7824 21.5762C42.1975 22.0205 40.051 23.1066 38.4959 24.5383C36.692 26.197 35.7026 28.3396 35.83 30.5118C35.9258 32.1508 36.6594 33.78 38.1266 35.2413C39.7321 36.8408 42.1827 38.2132 45.6236 39.1512C52.6349 41.0865 57.6329 40.1781 60.7579 38.0454C64.1021 35.7744 65.2781 32.1113 64.4289 29.1887C64.3736 29.011 64.4763 28.8136 64.659 28.7543C64.8416 28.7049 65.0352 28.8036 65.0914 28.9912C66.1252 32.1804 64.9631 36.2681 61.3444 38.8846C58.0792 41.2444 52.781 42.3997 45.2613 40.5335C41.4896 39.5659 38.796 38.0849 37.0297 36.357C35.2327 34.5995 34.3677 32.5853 34.2611 30.6007C34.1475 28.468 34.9088 26.355 36.3879 24.5876C38.174 22.445 41.0137 20.806 44.5721 20.263C48.1493 19.7496 51.8914 20.0556 55.2277 20.9936C59.0972 22.0896 62.4157 24.0347 64.3095 26.4734Z" fill="#FF8C3A"/>
<path fill-rule="evenodd" clip-rule="evenodd" d="M52.5016 26.0988C52.6793 26.1679 52.7672 26.3653 52.6971 26.5431C52.627 26.7208 52.4265 26.8097 52.2488 26.7405C50.7846 26.2469 49.2581 26.4542 48.1118 26.9874C47.5826 27.2342 47.1442 27.5601 46.8411 27.9155C46.6209 28.1723 46.4876 28.4388 46.4935 28.7153C46.4994 28.9424 46.6495 29.1497 46.8973 29.3472C47.0622 29.4854 47.2903 29.5546 47.549 29.6138C47.9587 29.7126 48.4396 29.7619 48.953 29.8113C49.579 29.8607 50.2494 29.9001 50.9021 29.9791C51.6347 30.0778 52.3476 30.2358 52.9656 30.4925C54.0369 30.9566 54.8564 31.707 55.1349 33.0103C55.2573 33.6027 55.1319 34.1556 54.7715 34.6394C54.265 35.301 53.2678 35.844 52.0533 36.0218C50.206 36.3081 47.8847 35.844 46.4895 34.1754C46.3622 34.0273 46.373 33.81 46.5142 33.6817C46.6554 33.5533 46.8746 33.5633 47.003 33.7114C48.0723 34.7975 49.6145 35.1232 50.988 35.0146C51.9111 34.9455 52.7543 34.6592 53.3083 34.2347C53.637 33.9878 53.8533 33.6916 53.7585 33.3361C53.5571 32.5758 53.0268 32.1809 52.3831 31.9242C51.8736 31.7267 51.2921 31.628 50.6967 31.549C50.0608 31.47 49.4092 31.4108 48.801 31.3417C47.5984 31.2035 46.5537 30.9566 45.9652 30.4333C44.5188 29.1004 45.0391 27.4318 46.768 26.4049C48.2006 25.5656 50.4647 25.1904 52.5016 26.0988Z" fill="#FF8C3A"/>
<path fill-rule="evenodd" clip-rule="evenodd" d="M63.4435 38.5683C63.5708 38.4202 63.79 38.4103 63.9322 38.5387C64.0744 38.667 64.0862 38.8843 63.9588 39.0225C62.0157 41.3329 58.3665 42.9423 54.2571 43.5051C52.8471 43.7026 51.3838 43.7618 49.9216 43.6927C48.9539 43.6532 47.9853 43.5446 47.0365 43.3768C45.2059 43.041 43.4385 42.4684 41.8489 41.6686C37.9992 39.7137 35.1635 36.4159 34.8376 31.6173C34.8189 31.4297 34.9571 31.2619 35.1477 31.2421C35.3382 31.2224 35.5071 31.3606 35.5258 31.5482C36.0126 35.2903 38.1236 37.8969 40.978 39.605C42.8461 40.7109 45.0341 41.4218 47.3139 41.8167C48.2045 41.9747 49.108 42.0932 50.0124 42.1525C51.3888 42.2512 52.7671 42.2413 54.104 42.1327C57.9715 41.797 61.4875 40.6022 63.4435 38.5683Z" fill="#FF8C3A"/>
<path fill-rule="evenodd" clip-rule="evenodd" d="M46.6161 22.8598C46.5292 22.6821 46.5964 22.4748 46.7662 22.3859C46.936 22.3069 47.1444 22.3661 47.2322 22.5438C47.2322 22.5438 47.5591 22.8203 48.0685 23.4522C48.1623 23.5707 48.2522 23.6991 48.344 23.8472C48.3983 23.936 48.4546 24.0249 48.497 24.1236C48.5948 24.3507 48.6639 24.6074 48.7281 24.8839C48.816 25.2789 48.8515 25.654 48.9186 26.0983C48.9966 26.2761 48.9186 26.4834 48.7439 26.5624C48.5701 26.6315 48.3647 26.5624 48.2867 26.3847C48.0014 26.0391 47.7378 25.7725 47.5038 25.4566C47.3339 25.2295 47.1848 25.0122 47.0693 24.795C47.0199 24.7061 46.9864 24.6075 46.9538 24.5087C46.8975 24.3508 46.8551 24.2026 46.8225 24.0545C46.6438 23.2745 46.6161 22.8598 46.6161 22.8598ZM51.6862 35.5277C51.6359 35.3499 51.7455 35.1525 51.9291 35.1031C52.1137 35.0538 52.3043 35.1624 52.3546 35.35C52.5571 35.6067 52.7239 35.7844 52.8948 36.051C52.957 36.1497 53.0033 36.2485 53.0478 36.3571C53.0764 36.4262 53.1051 36.4953 53.1169 36.5743C53.1475 36.7619 53.1396 36.9495 53.1208 37.137C53.0902 37.4629 53.0182 37.6999 52.95 38.006C52.9816 38.1936 52.8543 38.3713 52.6667 38.401C52.4781 38.4404 52.2994 38.312 52.2678 38.1244C52.1088 37.8677 51.9498 37.6801 51.7998 37.4037C51.7129 37.2457 51.6201 37.0976 51.5766 36.9199C51.5342 36.7422 51.5421 36.5644 51.5509 36.3867C51.5667 36.0707 51.6428 35.8436 51.6862 35.5277Z" fill="#FF8C3A"/>
</g>
<defs>
<clipPath id="clip0_207_2257">
<rect width="65.4546" height="42.813" fill="white" transform="translate(0 0.908203)"/>
</clipPath>
</defs>
</svg>
