<svg width="59" height="48" viewBox="0 0 59 48" fill="none" xmlns="http://www.w3.org/2000/svg">
<g clip-path="url(#clip0_207_2241)">
<path fill-rule="evenodd" clip-rule="evenodd" d="M1.50491 10.7033C1.50673 10.5354 1.64483 10.4006 1.81302 10.4024C1.9813 10.4041 2.11635 10.5424 2.11452 10.7102C2.11452 10.7102 2.14192 24.2376 2.26445 34.0933C2.32828 39.2251 2.39733 43.3454 2.55822 43.9464C2.77258 44.7569 3.13331 45.3509 3.86077 45.6796C4.45622 45.9492 5.2609 46.0518 6.34857 46.0144C6.68138 46.0048 9.88115 45.9231 14.5332 45.8422C18.0092 45.7831 22.2957 45.7239 26.8031 45.6726C41.0435 45.5109 57.4806 45.4022 57.4806 45.4022C57.6485 45.3987 57.7876 45.5326 57.7911 45.7005C57.7946 45.8692 57.6598 46.0083 57.4919 46.0109C57.4919 46.0109 41.0635 46.5318 26.8274 46.9206C22.3218 47.0432 18.0362 47.1502 14.5611 47.2267C9.91594 47.3284 6.72051 47.3737 6.38814 47.3832C4.6378 47.425 3.48178 47.1162 2.70015 46.5466C1.9766 46.0188 1.54012 45.2656 1.28897 44.2751C1.1327 43.6516 1.07504 39.3964 1.11269 34.0959C1.18279 24.2341 1.50491 10.7033 1.50491 10.7033Z" fill="#FF8C3A"/>
<path fill-rule="evenodd" clip-rule="evenodd" d="M56.6288 45.6705C56.5766 45.587 56.5218 45.4948 56.4688 45.3991C56.1557 44.84 55.8826 44.1868 55.8826 44.1868C55.7774 44.0546 55.7992 43.8633 55.9305 43.7581C56.0618 43.6529 56.254 43.6746 56.3592 43.8059C56.3592 43.8059 56.9349 44.2181 57.4106 44.6478C57.7602 44.9626 58.0289 45.2748 58.0289 45.2748C58.2411 45.5417 58.2289 45.9235 57.9994 46.1757C57.9994 46.1757 57.902 46.2888 57.7367 46.4392C57.6185 46.5479 57.4697 46.6714 57.3045 46.7993C56.7697 47.2132 56.147 47.6306 56.147 47.6306C56.034 47.755 55.8409 47.7637 55.7165 47.6506C55.5922 47.5376 55.5835 47.3445 55.6965 47.2202C55.6965 47.2202 56.054 46.561 56.4157 45.9905C56.4888 45.8757 56.561 45.7679 56.6288 45.6705Z" fill="#FF8C3A"/>
<path fill-rule="evenodd" clip-rule="evenodd" d="M1.83629 11.5316C1.76071 11.5759 1.67792 11.6211 1.58957 11.6655C1.07674 11.922 0.493725 12.1368 0.493725 12.1368C0.361713 12.2412 0.169871 12.2186 0.0656004 12.0864C-0.0386703 11.9542 -0.0162311 11.7629 0.115781 11.6585C0.115781 11.6585 0.459723 11.1411 0.827322 10.701C0.938288 10.568 1.04926 10.4532 1.14596 10.361C1.27954 10.2349 1.38094 10.1636 1.38094 10.1636C1.63618 9.96098 1.99743 9.96444 2.24945 10.1697C2.24945 10.1697 2.496 10.4071 2.74663 10.7123C3.0897 11.1298 3.41339 11.622 3.41339 11.622C3.54375 11.7281 3.56314 11.9203 3.45678 12.0507C3.35042 12.1812 3.15823 12.2003 3.02787 12.0942C3.02787 12.0942 2.48121 11.8759 2.003 11.6229C1.94525 11.5924 1.88933 11.562 1.83629 11.5316Z" fill="#FF8C3A"/>
<path fill-rule="evenodd" clip-rule="evenodd" d="M12.7041 27.346C12.705 27.346 12.7067 27.346 12.7084 27.3443C12.7197 27.3373 12.7145 27.3278 12.7006 27.3173C12.6997 27.3121 12.6997 27.3078 12.6989 27.3025C12.6989 27.306 12.6989 27.3112 12.6989 27.3164C12.6771 27.3008 12.6373 27.2834 12.615 27.2678C12.5434 27.2182 12.4571 27.1756 12.3611 27.1338C11.9992 26.9799 11.5168 26.8799 11.0012 26.8164C10.1176 26.7077 9.13629 26.7181 8.43987 26.8538C8.26247 26.8877 8.05332 26.9643 7.95383 27.0025C7.78173 28.1678 7.5511 32.3769 7.34491 36.7173C7.15889 40.636 6.98888 44.6564 7.00966 46.68C7.01531 46.8479 6.88339 46.9896 6.71528 46.9948C6.54709 47.0009 6.40604 46.8687 6.40039 46.7009C6.2842 44.6703 6.23533 40.6273 6.2675 36.6869C6.28507 34.5389 6.32751 32.4239 6.38464 30.6828C6.45178 28.6383 6.54779 27.1017 6.63154 26.6068C6.6918 26.2616 6.97792 25.892 7.54788 25.6728C8.1982 25.4215 9.33978 25.3058 10.4673 25.3754C11.628 25.4467 12.7658 25.7198 13.3659 26.1346C13.7685 26.4129 13.9886 26.7608 14.0312 27.133C14.099 27.7313 14.066 30.0932 13.9555 33.0344C13.7807 37.6931 13.4346 43.8223 13.2781 46.5757C13.272 46.7444 13.1302 46.8757 12.9624 46.8696C12.7945 46.8635 12.6624 46.7218 12.6684 46.5539C12.7093 43.7997 12.7641 37.667 12.7754 33.0109C12.7824 30.2306 12.7806 27.9861 12.7041 27.346ZM12.7041 27.346C12.6989 27.3452 12.6989 27.3295 12.6989 27.3164C12.6997 27.3164 12.7006 27.3173 12.7006 27.3173C12.7015 27.326 12.7032 27.3365 12.7041 27.346Z" fill="#FF8C3A"/>
<path fill-rule="evenodd" clip-rule="evenodd" d="M22.7879 23.4577C22.7357 23.4307 22.5609 23.3429 22.4244 23.2994C21.9365 23.1455 21.2547 23.0568 20.5764 23.0342C19.8998 23.0125 19.2258 23.0533 18.7588 23.1959C18.6788 23.2203 18.578 23.2681 18.524 23.2942C18.464 23.7273 18.411 25.2222 18.3397 27.2676C18.2449 29.9792 18.1431 33.6239 18.0744 37.099C17.9996 40.9106 17.9544 44.5153 18.0283 46.4555C18.0379 46.6234 17.9101 46.7677 17.7422 46.7782C17.5735 46.7877 17.43 46.6599 17.4196 46.492C17.2344 44.1518 17.0926 39.387 17.0395 34.7509C17.0108 32.2255 17.0091 29.74 17.0282 27.7077C17.0543 25.0683 17.1343 23.1716 17.2056 22.8733C17.277 22.5794 17.477 22.3046 17.8274 22.0985C18.2805 21.8306 19.0954 21.6654 19.9929 21.6419C21.0921 21.6132 22.3148 21.7784 23.0471 22.0619C23.5384 22.2532 23.8515 22.5307 23.9802 22.7898C24.0332 22.8959 24.1115 23.2246 24.1385 23.7464C24.1967 24.8822 24.1811 27.2502 24.1063 30.0809C23.9567 35.7162 23.5923 43.1943 23.4045 46.3816C23.3975 46.5503 23.2558 46.6808 23.0879 46.6738C22.9192 46.6668 22.7888 46.5251 22.7957 46.3573C22.867 43.17 22.9244 35.6954 22.9036 30.067C22.8931 27.2781 22.8679 24.9474 22.7879 23.829C22.7792 23.7003 22.7896 23.5577 22.7879 23.4577ZM18.5397 23.2055C18.5406 23.2046 18.5406 23.2046 18.5406 23.2046L18.5397 23.2055ZM22.787 23.4429C22.7844 23.3664 22.7722 23.3186 22.7331 23.3281C22.6992 23.3368 22.754 23.3873 22.7627 23.4055C22.7679 23.4151 22.7783 23.4307 22.787 23.4429Z" fill="#FF8C3A"/>
<path fill-rule="evenodd" clip-rule="evenodd" d="M31.7714 19.654C31.7122 19.6165 31.5653 19.5269 31.4487 19.4811C30.9687 19.2935 30.2852 19.1842 29.606 19.1581C29.032 19.1352 28.4606 19.1706 28.0171 19.2894C27.898 19.3217 27.7893 19.3581 27.6962 19.405C27.6562 19.4248 27.6014 19.4644 27.5788 19.4811C27.5014 19.9655 27.4275 22.4522 27.3379 25.7869C27.2605 28.6466 27.1779 32.1168 27.1162 35.4984C27.0396 39.6686 26.9849 43.7024 27.024 46.2881C27.0292 46.4558 26.897 46.5964 26.7292 46.6027C26.5613 46.6079 26.4196 46.4756 26.4144 46.3079C26.2535 43.1628 26.1265 37.8716 26.0778 32.7939C26.05 29.8676 26.0482 27.0142 26.0674 24.6847C26.0926 21.6636 26.1674 19.5081 26.2361 19.1612C26.317 18.7633 26.5961 18.4112 27.0736 18.1684C27.5397 17.932 28.2423 17.7913 29.0076 17.7663C30.146 17.7278 31.42 17.9351 32.1636 18.2914C32.6236 18.5112 32.9176 18.8091 33.0402 19.106C33.088 19.2217 33.1532 19.5748 33.1785 20.1343C33.2367 21.4386 33.2228 24.1513 33.1506 27.4194C33.0132 33.6451 32.6784 41.8907 32.4767 46.2016C32.4723 46.3704 32.3314 46.5027 32.1627 46.4975C31.9949 46.4923 31.8627 46.3516 31.8679 46.1829C31.9314 41.872 31.9679 33.6284 31.9418 27.408C31.9288 24.1764 31.9001 21.4938 31.8218 20.2051C31.8088 19.9915 31.7835 19.7634 31.7714 19.654Z" fill="#FF8C3A"/>
<path fill-rule="evenodd" clip-rule="evenodd" d="M36.6128 24.9387C36.5354 25.418 36.4589 27.8755 36.3528 31.1759C36.2119 35.5503 36.0319 41.3738 35.9667 46.1233C35.9684 46.291 35.8328 46.4285 35.6641 46.4296C35.4962 46.4317 35.3588 46.2952 35.3571 46.1275C35.2431 42.1114 35.1457 37.3276 35.1283 33.2959C35.1075 28.7017 35.1875 25.0773 35.2762 24.621C35.3571 24.2231 35.6354 23.872 36.1119 23.6292C36.5772 23.3917 37.2807 23.2511 38.0451 23.225C39.1835 23.1875 40.4567 23.3959 41.2002 23.7532C41.6585 23.973 41.9516 24.2699 42.0742 24.5658C42.1168 24.671 42.176 24.9617 42.1994 25.4169C42.2525 26.4358 42.2507 28.5443 42.1933 31.1842C42.1003 35.519 41.8672 41.2947 41.6637 46.0222C41.6594 46.191 41.5194 46.3244 41.3515 46.3202C41.1837 46.316 41.0498 46.1764 41.0541 46.0087C41.0706 41.2811 41.0472 35.5086 40.9976 31.178C40.968 28.5787 40.9324 26.5046 40.8567 25.5024C40.8393 25.2846 40.8889 25.0242 40.8037 25.044C40.7828 25.0492 40.8158 25.0815 40.821 25.095C40.8263 25.1055 40.8376 25.1273 40.8376 25.1273C40.8376 25.1273 40.6375 24.9961 40.488 24.9377C40.0071 24.7502 39.3226 24.6429 38.6435 24.6169C38.0695 24.5939 37.4981 24.6293 37.0546 24.7471C36.9346 24.7794 36.8259 24.8158 36.7329 24.8617C36.692 24.8825 36.6355 24.9221 36.6128 24.9387Z" fill="#FF8C3A"/>
<path fill-rule="evenodd" clip-rule="evenodd" d="M47.3567 45.8938C47.3645 46.0613 47.2349 46.2051 47.0671 46.2126C46.8992 46.2214 46.7557 46.0913 46.747 45.9238C46.5479 42.8142 46.394 35.736 46.3374 28.8117C46.3079 25.1407 46.3053 21.5147 46.3261 18.5477C46.3522 14.7592 46.4261 12.0309 46.4974 11.6058C46.5696 11.1807 46.8183 10.8244 47.2227 10.5568C47.6967 10.2442 48.4341 10.0566 49.2438 10.0204C50.2386 9.97662 51.3405 10.1492 52.1067 10.473C52.7528 10.7468 53.1789 11.1557 53.3259 11.5796C53.372 11.7121 53.4285 12.1322 53.452 12.7936C53.5111 14.4503 53.4946 17.8988 53.4181 22.0086C53.2624 30.4259 52.8754 41.6214 52.6945 45.815C52.6893 45.9838 52.5484 46.1164 52.3806 46.1101C52.2127 46.1051 52.0806 45.9651 52.0849 45.7975C52.1588 41.6026 52.2206 30.4109 52.2006 21.9986C52.1927 18.6252 52.1754 15.6994 52.124 13.8552C52.0954 12.8374 52.0832 12.1847 52.0293 12.0347C51.9919 11.9297 51.851 11.8809 51.7023 11.8084C51.23 11.577 50.5439 11.4433 49.8638 11.4108C49.2881 11.3845 48.7142 11.4283 48.2785 11.5783C48.168 11.6158 48.068 11.6608 47.9845 11.7146C47.928 11.7521 47.8697 11.7809 47.8593 11.8409C47.7776 12.3023 47.6967 15.5631 47.6036 19.9331C47.5262 23.5891 47.4427 28.0102 47.3853 32.2339C47.3071 37.9491 47.2653 43.2994 47.3567 45.8938Z" fill="#FF8C3A"/>
<path fill-rule="evenodd" clip-rule="evenodd" d="M37.7179 14.8695C37.7927 14.8243 38.138 14.6104 38.4128 14.3834C39.2572 13.6859 40.4817 12.4667 41.8496 11.0361C45.9761 6.72181 51.3574 0.500362 51.3574 0.500362C51.4653 0.371655 51.6575 0.353374 51.7871 0.460341C51.9166 0.568177 51.934 0.760385 51.8271 0.889963C51.8271 0.889963 46.684 7.34882 42.6853 11.8092C41.0261 13.6607 39.5512 15.1661 38.7189 15.7714C38.3519 16.0375 38.0458 16.1488 37.8562 16.1653C37.3883 16.2053 36.6535 15.9844 35.803 15.5774C34.462 14.9356 32.7436 13.8546 31.3417 13.1737C30.9399 12.9789 30.5677 12.8154 30.2416 12.7154C30.0277 12.6502 29.8459 12.6015 29.7015 12.625C29.4015 12.6728 28.5127 13.0772 27.2552 13.6686C25.6673 14.4138 23.5436 15.4696 21.2921 16.5993C15.7498 19.3804 9.45117 22.6381 8.6578 23.1634C8.51944 23.259 8.32942 23.2242 8.23376 23.0859C8.1381 22.9477 8.17271 22.7581 8.31116 22.6624C9.08801 22.1024 15.2672 18.5377 20.752 15.5644C23.4149 14.1199 25.9169 12.8215 27.5414 12.0475C28.5101 11.5857 29.2015 11.3153 29.4728 11.2674C29.9694 11.1822 30.7321 11.364 31.6069 11.7631C32.9636 12.3815 34.6855 13.4833 36.0804 14.2155C36.7657 14.5738 37.3388 14.8721 37.7179 14.8695Z" fill="#FF8C3A"/>
<path fill-rule="evenodd" clip-rule="evenodd" d="M50.9546 1.41062C50.8972 1.40975 50.8389 1.40801 50.7798 1.40627C50.1302 1.38192 49.4205 1.27234 49.4205 1.27234C49.2536 1.29321 49.1014 1.17494 49.0805 1.00796C49.0596 0.840992 49.1788 0.688811 49.3449 0.66794C49.3449 0.66794 50.0067 0.387037 50.6293 0.204411C51.0868 0.0696156 51.4998 0.00525826 51.4998 0.00525826C51.6973 -0.0190919 51.8964 0.0417996 52.046 0.173986C52.1956 0.306172 52.2808 0.495755 52.2808 0.694904C52.2808 0.694904 52.2825 0.842742 52.2617 1.06276C52.246 1.22191 52.2199 1.41148 52.1843 1.61498C52.0677 2.27417 51.8903 2.99512 51.8903 2.99512C51.8903 3.16383 51.7538 3.30036 51.5859 3.30036C51.4172 3.30036 51.2807 3.16383 51.2807 2.99512C51.2807 2.99512 51.1042 2.27417 50.9876 1.61498C50.9755 1.5454 50.9641 1.47672 50.9546 1.41062Z" fill="#FF8C3A"/>
<path fill-rule="evenodd" clip-rule="evenodd" d="M26.7266 45.6655L26.9253 18.8276L30.0374 18.2949L32.1775 19.1471L32.2045 45.9975L26.7266 45.6655Z" fill="#FF8C3A"/>
<path fill-rule="evenodd" clip-rule="evenodd" d="M7.23305 26.1016L11.1138 26.111L13.4053 26.7448L13.0323 46.4653C13.0323 46.4653 6.28562 47.2827 6.53817 46.5153C6.79071 45.748 7.23305 26.1016 7.23305 26.1016Z" fill="#FF8C3A"/>
</g>
<defs>
<clipPath id="clip0_207_2241">
<rect width="58.1818" height="47.7291" fill="white"/>
</clipPath>
</defs>
</svg>
