<svg width="65" height="47" viewBox="0 0 65 47" fill="none" xmlns="http://www.w3.org/2000/svg">
<g clip-path="url(#clip0_207_2274)">
<path fill-rule="evenodd" clip-rule="evenodd" d="M18.3699 43.6591C21.3745 39.6605 24.239 35.1841 26.7908 30.8531C31.3835 23.0532 34.9324 15.6688 36.267 12.096C36.456 11.5975 36.7022 11.0886 36.8175 10.7459C32.6703 9.02177 29.4081 7.3496 26.9196 5.94749C24.4633 4.56615 22.7652 3.46525 21.7038 2.85248C21.5106 2.74862 21.305 2.64474 21.146 2.57204C17.9596 8.35705 14.6288 13.7993 11.5899 18.4522C5.5224 27.7684 0.654069 34.0105 0.654069 34.0105C0.532761 34.1663 0.304269 34.1974 0.144118 34.0831C-0.0160344 33.9585 -0.0475066 33.7301 0.0739059 33.5743C0.0739059 33.5743 4.75114 27.218 10.5999 17.829C13.5975 13.0099 16.9096 7.40153 20.041 1.42958C20.1874 1.14915 20.4263 0.972611 20.7836 0.931067C20.9487 0.910295 21.173 0.931067 21.4524 1.03493C21.764 1.13879 22.2117 1.36722 22.7985 1.69957C25.1021 3.02898 29.8454 6.1344 37.8633 9.38522C38.123 9.48908 38.5229 9.83186 38.4377 10.5693C38.3774 11.1093 38.0139 12.2414 37.3627 13.7993C36.5661 15.6999 35.3427 18.2965 33.7858 21.2877C30.1891 28.184 24.8268 37.1679 19.0554 44.5315C18.9671 44.6458 18.696 44.8327 18.2255 44.7393C17.7509 44.6354 16.7756 44.2511 15.5542 43.711C11.468 41.9142 4.48785 38.3727 4.48785 38.3727C4.30765 38.2896 4.23349 38.0714 4.3224 37.8845C4.4112 37.7079 4.62972 37.6352 4.80992 37.7183C4.80992 37.7183 13.7606 42.0077 17.3562 43.3475C17.7415 43.4929 18.1528 43.6071 18.3699 43.6591ZM21.3797 2.14615C21.3808 2.14615 21.3808 2.14615 21.3808 2.14615H21.3797ZM36.8611 10.6004C36.8985 10.4446 36.887 10.3511 36.7946 10.3511C36.6741 10.3511 36.7811 10.5069 36.8611 10.6004Z" fill="#FF8C3A"/>
<path fill-rule="evenodd" clip-rule="evenodd" d="M17.3473 17.3189C17.5457 17.2878 17.7326 17.4227 17.7648 17.6201C17.797 17.8174 17.662 18.0043 17.4636 18.0355C16.9724 18.1394 16.5424 18.5133 16.1799 18.991C15.6814 19.6557 15.3449 20.5386 15.2348 21.4006C15.1299 22.2211 15.2379 23.0105 15.7717 23.4467C16.0657 23.6856 16.4925 23.7582 17.0617 23.6959C18.4119 23.5816 19.3404 22.8443 20.1702 22.1692C21.0188 21.4734 21.7863 20.819 22.5943 20.5386C23.2746 20.3101 23.9891 20.279 24.7972 20.6632C25.4349 20.9644 25.8576 21.5356 26.0134 22.2938C26.2232 23.322 25.9646 24.7242 25.3206 25.9601C24.4056 27.7153 22.7937 29.0966 21.0738 28.5981C20.8785 28.5566 20.7581 28.3592 20.8038 28.1619C20.8505 27.9645 21.0468 27.8503 21.2421 27.8919C22.3409 28.0996 23.2497 27.2999 23.8801 26.2509C24.4285 25.3473 24.7421 24.2256 24.7317 23.3012C24.7255 22.7196 24.6165 22.2107 24.1906 22.0446C23.7991 21.8784 23.4626 21.9095 23.1448 22.0341C22.4904 22.2834 21.9161 22.8962 21.2182 23.457C20.1588 24.3191 18.899 25.1292 17.1718 25.2331C16.1145 25.2746 15.3563 24.9838 14.8453 24.5164C14.2606 23.966 13.9563 23.1766 13.9532 22.2834C13.949 21.2864 14.2793 20.1647 14.8443 19.2507C15.483 18.2017 16.3897 17.4228 17.3473 17.3189Z" fill="#FF8C3A"/>
<path fill-rule="evenodd" clip-rule="evenodd" d="M15.347 19.3241C15.5308 19.4072 15.616 19.6149 15.535 19.8018C15.455 19.9888 15.2411 20.0719 15.0562 19.9889C14.7353 19.9992 14.5047 20.0511 14.1952 20.0303C14.0155 20.0096 13.8421 19.9992 13.679 19.9369C13.5097 19.8642 13.3799 19.7499 13.2407 19.646C12.9894 19.4487 12.843 19.2618 12.6165 19.0748C12.4244 19.0125 12.3164 18.8048 12.3756 18.6179C12.4348 18.4205 12.6384 18.3167 12.8305 18.379C13.141 18.3375 13.383 18.2959 13.7164 18.3063C13.9044 18.3063 14.0851 18.3271 14.2721 18.379C14.3417 18.3998 14.4061 18.4413 14.4684 18.4829C14.567 18.5348 14.6543 18.5971 14.7415 18.6802C14.9804 18.8879 15.1258 19.0748 15.347 19.3241ZM28.1322 26.667C28.2983 26.7813 28.3409 27.0097 28.2267 27.1759C28.1135 27.3317 27.8871 27.3837 27.7209 27.2694C27.7209 27.2694 27.3626 27.2279 26.6709 26.9994C26.5462 26.9579 26.4216 26.9059 26.2835 26.8436C26.2045 26.8021 26.1214 26.7708 26.0446 26.7085C25.8691 26.5839 25.7091 26.4177 25.5388 26.2412C25.2978 25.9815 25.1171 25.7115 24.8616 25.3999C24.6913 25.2857 24.6404 25.0675 24.7474 24.891C24.8554 24.7248 25.0808 24.6729 25.2501 24.7871C25.6468 24.8806 25.9688 24.9325 26.3074 25.0468C26.5473 25.1299 26.7612 25.213 26.9523 25.3169C27.0354 25.3688 27.105 25.4311 27.1725 25.4934C27.2888 25.5869 27.3854 25.6804 27.4727 25.7842C27.9587 26.3451 28.1322 26.667 28.1322 26.667Z" fill="#FF8C3A"/>
<path fill-rule="evenodd" clip-rule="evenodd" d="M41.8298 9.31153C40.6551 8.68837 37.8883 7.17202 34.9927 5.57257C32.2685 4.0666 29.432 2.49839 27.6934 1.60519C27.1523 1.32477 26.7223 1.10666 26.444 0.98203C26.3391 1.16898 26.203 1.387 26.0462 1.62588C25.4511 2.51908 24.5953 3.70309 24.5953 3.70309C24.4821 3.86926 24.2557 3.91085 24.0895 3.7966C23.9243 3.68235 23.8818 3.45382 23.996 3.28765C23.996 3.28765 24.6223 2.33219 25.1457 1.48054C25.4636 0.961238 25.7502 0.483441 25.7814 0.348423C25.8146 0.192632 25.9122 0.0679798 26.1158 0.0160497C26.176 -0.00472235 26.3214 -0.0150272 26.5344 0.0472889C26.8065 0.130377 27.3673 0.369255 28.1255 0.72238C29.9098 1.54288 32.8272 2.98647 35.6138 4.39897C39.1513 6.18536 42.4748 7.91983 42.991 8.13794C43.2485 8.25218 43.4812 8.48067 43.5206 8.91689C43.5445 9.17654 43.4209 9.74783 43.0803 10.5372C42.5288 11.825 41.4289 13.9022 39.9614 16.374C38.9477 18.0773 37.7533 19.9676 36.4654 21.9202C34.4942 24.901 32.2955 28.0168 30.1539 30.821C27.4379 34.3627 24.8061 37.385 22.8411 38.9741C22.6874 39.1091 22.4568 39.0883 22.328 38.9325C22.1982 38.7767 22.2179 38.5483 22.3716 38.4236C24.2328 36.7826 26.6621 33.6876 29.1963 30.1148C31.7637 26.4901 34.4163 22.3565 36.6482 18.6902C37.4895 17.3088 38.2736 15.9898 38.9705 14.785C39.871 13.2375 40.6261 11.8873 41.1557 10.8383C41.4476 10.2671 41.6927 9.66466 41.8298 9.31153ZM26.605 0.680795C26.6257 0.649637 26.6413 0.608134 26.6528 0.56659C26.6444 0.597748 26.6289 0.639251 26.605 0.680795ZM42.3366 9.57119C42.3408 9.57119 42.346 9.58163 42.3512 9.58163C42.346 9.58163 42.3418 9.57119 42.3366 9.57119Z" fill="#FF8C3A"/>
<path fill-rule="evenodd" clip-rule="evenodd" d="M50.2888 8.97871C49.9513 8.78138 49.4423 8.5009 48.8202 8.13739C46.6547 6.90145 43.1962 4.96969 40.3619 3.45333C38.105 2.24855 36.2698 1.293 35.8554 1.23068C35.5064 1.17875 35.1325 1.52149 34.7586 1.90578C33.9485 2.72627 33.2578 3.9207 33.2578 3.9207C33.1602 4.08688 32.938 4.15956 32.7624 4.0557C32.5869 3.96223 32.5236 3.73371 32.6201 3.56754C32.6201 3.56754 33.5019 1.9058 34.4751 0.991827C34.9674 0.524456 35.5054 0.275151 35.9717 0.327081C36.5055 0.379011 39.3212 1.6773 42.4276 3.22482C45.6182 4.81388 49.1308 6.65221 50.7468 7.53502C51.3741 7.87776 51.748 8.12704 51.8041 8.17897C51.8841 8.26206 52.1739 8.65667 51.882 9.25906C51.7376 9.54986 51.3793 10.1523 50.8258 10.9832C49.6688 12.728 47.656 15.553 45.0459 18.8038C43.1879 21.1095 41.0224 23.623 38.6783 26.1156C33.6099 31.5268 27.693 36.8652 22.1552 39.929C21.9807 40.0329 21.7585 39.9705 21.6577 39.7939C21.558 39.6278 21.6172 39.3994 21.7917 39.3059C26.1071 36.7094 30.5783 32.6172 34.7036 28.2655C38.051 24.7446 41.1481 21.0368 43.728 17.7964C46.1302 14.7844 48.0859 12.1776 49.2886 10.4639C49.7259 9.83035 50.0645 9.33184 50.2888 8.97871Z" fill="#FF8C3A"/>
<path fill-rule="evenodd" clip-rule="evenodd" d="M57.8205 15.3033C57.0779 14.4413 55.7007 13.0704 54.1044 11.5332C50.4402 7.98121 45.6169 3.56719 44.272 2.33126L43.0443 4.24222C42.9394 4.41879 42.7151 4.47074 42.5437 4.36688C42.3724 4.26302 42.3194 4.03448 42.4243 3.85792L43.8285 1.46914C43.8939 1.35489 44.0019 1.29263 44.1245 1.27186C44.247 1.25109 44.3717 1.28219 44.4651 1.36528C44.4651 1.36528 50.5898 6.50644 55.0329 10.5362C57.0779 12.3953 58.7635 14.0259 59.3857 14.8256C59.5269 15.0022 59.7055 15.4591 59.2776 15.9992C59.0232 16.3212 58.3616 16.9132 57.3552 17.6921C55.4857 19.1565 52.3907 21.3688 48.6559 23.8615C45.5006 25.9698 41.8853 28.2651 38.2097 30.5396C32.5358 34.0605 26.703 37.4672 22.1519 39.9286C21.9774 40.0325 21.7551 39.9701 21.6565 39.7935C21.5578 39.617 21.6191 39.3989 21.7946 39.295C24.7567 37.5502 28.2609 35.3588 31.9168 33.0011C35.2195 30.872 38.6376 28.6182 41.8821 26.4475C44.2034 24.9 46.4322 23.3837 48.4669 22.0023C51.0322 20.2575 53.286 18.7099 54.9841 17.4844C56.3145 16.5185 57.3022 15.7811 57.8205 15.3033Z" fill="#FF8C3A"/>
<path fill-rule="evenodd" clip-rule="evenodd" d="M60.2339 20.4353C59.859 19.5629 58.9409 17.7453 57.8472 15.6162C55.5654 11.1502 52.5037 5.35483 51.6208 3.68269L48.8488 5.89489C48.6951 6.01952 48.4645 5.99875 48.3368 5.84296C48.208 5.68717 48.2298 5.45863 48.3846 5.334L51.4786 2.65443C51.5814 2.57134 51.7154 2.54014 51.8462 2.56091C51.9761 2.58169 52.0893 2.66484 52.1536 2.77908C52.1536 2.77908 56.2125 9.77924 59.0686 14.9619C60.5538 17.6622 61.7046 19.8848 61.8729 20.4353C61.9165 20.5807 61.9674 20.9753 61.5561 21.3596C61.3504 21.5569 60.8602 21.9101 60.127 22.3775C58.6688 23.3019 56.1938 24.7559 53.1289 26.4384C50.9863 27.612 48.5539 28.8895 45.9927 30.1982C42.073 32.1923 37.849 34.2383 33.8878 36.0351C28.9389 38.2889 24.396 40.1271 21.3602 40.9892C21.1681 41.0515 20.9645 40.9373 20.9064 40.7503C20.8482 40.553 20.9562 40.3557 21.1494 40.2934C24.1229 39.3275 28.5411 37.323 33.3716 34.9446C38.3133 32.5143 43.6714 29.6893 48.3347 27.1551C49.7202 26.4073 51.0475 25.6802 52.2835 25.0052C54.6494 23.7173 56.6809 22.5852 58.1567 21.7231C59.105 21.1623 59.8195 20.7261 60.2339 20.4353ZM60.397 20.8611C60.3981 20.8715 60.3981 20.8715 60.3981 20.8715L60.397 20.8611Z" fill="#FF8C3A"/>
<path fill-rule="evenodd" clip-rule="evenodd" d="M63.5233 27.5177C63.4942 27.2581 63.3841 26.8634 63.3436 26.4895C63.1774 24.9939 62.8066 22.657 62.358 20.154C61.6268 16.0723 60.6889 11.5647 60.017 9.5914C59.9235 9.31097 59.8061 9.05136 59.7397 8.90596C59.3574 8.98905 58.7997 9.13447 58.2171 9.29026C56.9448 9.633 55.5551 10.0484 55.5551 10.0484C55.363 10.1004 55.1584 9.99651 55.0982 9.80956C55.0379 9.61223 55.1439 9.40447 55.335 9.35254C55.335 9.35254 56.7152 8.88513 57.9792 8.48007C58.7187 8.25158 59.4208 8.03351 59.7926 7.95043C59.9422 7.91927 60.1177 7.95047 60.2984 8.09587C60.4064 8.18935 60.5425 8.37623 60.6817 8.65665C61.1064 9.51869 61.714 11.5336 62.3309 13.964C63.4287 18.2742 64.5795 23.8826 64.915 26.5103C65.0324 27.4346 65.0105 28.0681 64.942 28.2654C64.9005 28.3901 64.8111 28.5459 64.6211 28.7121C64.4497 28.8471 64.0592 29.0652 63.4682 29.304C62.4182 29.7299 60.6328 30.3427 58.3853 31.0282C56.8669 31.4955 55.1366 31.9941 53.2816 32.503C49.9581 33.4274 46.2389 34.3933 42.6381 35.3072C35.4198 37.1144 28.6793 38.6723 26.5533 39.0565C26.356 39.0981 26.1638 38.9631 26.1243 38.7658C26.0849 38.5684 26.2126 38.3814 26.41 38.3399C28.8081 37.8102 37.1096 35.5045 45.3083 33.1469C48.8811 32.1186 52.431 31.0801 55.4658 30.1765C58.2835 29.3352 60.6547 28.6186 62.1596 28.0785C62.7318 27.8708 63.3062 27.6216 63.5233 27.5177ZM63.5295 27.6008C63.4921 27.6527 63.4547 27.715 63.4454 27.7461C63.4412 27.7565 63.408 27.7877 63.4298 27.7877C63.5087 27.7981 63.5337 27.7254 63.5295 27.6008Z" fill="#FF8C3A"/>
<path fill-rule="evenodd" clip-rule="evenodd" d="M37.3316 38.7872C37.2818 38.5899 37.4012 38.3924 37.5954 38.3405C37.7907 38.299 37.988 38.4133 38.0368 38.6106C38.0368 38.6106 38.4627 39.4934 38.8397 40.7397C38.9249 41.0202 38.9955 41.311 39.0568 41.6226C39.0962 41.8199 39.1326 42.0172 39.1502 42.2249C39.1928 42.7442 39.1824 43.2635 39.1315 43.762C39.037 44.6968 38.8189 45.5173 38.472 46.0885C38.3941 46.2755 38.1812 46.3585 37.9953 46.2858C37.8104 46.2027 37.7222 45.9951 37.799 45.8081C37.8863 45.4342 37.8489 44.9876 37.8021 44.4787C37.7699 44.1256 37.7024 43.762 37.6463 43.3777C37.5934 43.0038 37.5227 42.63 37.4843 42.2561C37.4355 41.7887 37.421 41.3213 37.4012 40.8851C37.3462 39.6803 37.3316 38.7872 37.3316 38.7872Z" fill="#FF8C3A"/>
<path fill-rule="evenodd" clip-rule="evenodd" d="M40.9298 30.3013C40.7948 30.1559 40.8072 29.9274 40.9557 29.7924C41.1053 29.6573 41.3359 29.6677 41.4698 29.8131C41.4698 29.8131 43.0288 31.2464 44.7902 33.5313C45.1776 34.0402 45.565 34.5803 45.9462 35.1619C46.1851 35.5358 46.4229 35.9097 46.6421 36.3044C47.1697 37.2703 47.6381 38.2985 48.0245 39.3683C48.6113 40.9781 48.9862 42.6606 49.0724 44.3016C49.0973 44.499 48.955 44.6756 48.7556 44.7067C48.5562 44.7275 48.3745 44.582 48.3495 44.3847C48.146 43.3669 47.7949 42.3595 47.3805 41.3624C46.9744 40.3861 46.4863 39.441 45.9805 38.5063C45.6699 37.9454 45.349 37.3846 45.0385 36.8445C44.7103 36.2733 44.3935 35.7124 44.0809 35.1827C43.6571 34.4661 43.2552 33.8013 42.8782 33.1989C41.7679 31.4333 40.9298 30.3013 40.9298 30.3013Z" fill="#FF8C3A"/>
<path fill-rule="evenodd" clip-rule="evenodd" d="M38.9542 21.5775C38.759 21.536 38.6364 21.3386 38.6811 21.1413C38.7247 20.9543 38.921 20.8297 39.1162 20.8713C39.1162 20.8713 42.5841 21.4633 46.6222 24.0182C47.4904 24.5791 48.3785 25.2229 49.2602 25.9811C49.7982 26.4381 50.3352 26.9367 50.8514 27.4975C52.0177 28.7335 53.1165 30.2083 54.0762 31.9116C55.2841 34.0615 56.2521 36.5853 56.8784 39.5245C56.9282 39.7219 56.8119 39.9192 56.6166 39.9711C56.4224 40.023 56.224 39.8984 56.1731 39.7115C55.3298 36.9488 54.1583 34.6327 52.8631 32.649C51.8578 31.1118 50.7589 29.7929 49.6476 28.64C49.1564 28.1311 48.6713 27.6429 48.1832 27.1963C47.3793 26.4485 46.5775 25.7942 45.7986 25.223C42.1375 22.5122 38.9542 21.5775 38.9542 21.5775Z" fill="#FF8C3A"/>
</g>
<defs>
<clipPath id="clip0_207_2274">
<rect width="65" height="46.3119" fill="white"/>
</clipPath>
</defs>
</svg>
