<svg width="43" height="25" viewBox="0 0 43 25" fill="none" xmlns="http://www.w3.org/2000/svg">
<path d="M35.1429 13.877C34.4582 13.03 34.6541 12.6531 35.1429 11.896C35.1517 11.8874 40.8039 4.23673 41.3862 1.64214L41.3897 1.64041C41.6791 0.694885 41.3897 0 39.9904 0H35.3599C34.1812 0 33.6377 0.596357 33.3465 1.26359C33.3465 1.26359 30.9889 6.79156 27.6537 10.3749C26.5773 11.4103 26.0797 11.7422 25.4921 11.7422C25.2027 11.7422 24.7527 11.4103 24.7527 10.4648V1.64041C24.7527 0.506471 24.4227 0 23.4468 0H16.1659C15.4265 0 14.9871 0.528943 14.9871 1.02159C14.9871 2.09676 16.6547 2.34394 16.8277 5.36894V11.9323C16.8277 13.3705 16.5612 13.635 15.97 13.635C14.396 13.635 10.5755 8.08453 8.31148 1.73203C7.85443 0.499557 7.40798 0.00172845 6.22037 0.00172845H1.58818C0.266461 0.00172845 0 0.598085 0 1.26531C0 2.4442 1.57406 8.30578 7.31975 16.0498C11.149 21.3358 16.5418 24.2 21.4475 24.2C24.3962 24.2 24.7562 23.5639 24.7562 22.4697C24.7562 17.4188 24.4897 16.9417 25.9667 16.9417C26.6514 16.9417 27.8302 17.2736 30.5831 19.8233C33.7294 22.8465 34.2465 24.2 36.0076 24.2H40.638C41.958 24.2 42.6268 23.5639 42.2421 22.3089C41.3615 19.6694 35.4111 14.24 35.1429 13.877Z" fill="white"/>
</svg>
