<svg width="40" height="40" viewBox="0 0 40 40" fill="none" xmlns="http://www.w3.org/2000/svg">
<g clip-path="url(#clip0_207_2430)">
<path d="M30.3396 9.60326C27.5963 6.85826 23.9479 5.34493 20.0612 5.34326C12.0496 5.34326 5.53125 11.8583 5.52958 19.8666C5.52625 22.4149 6.19458 24.9199 7.46792 27.1283L5.40625 34.6549L13.1096 32.6349C15.2413 33.7949 17.6279 34.4033 20.0546 34.4033H20.0612C28.0696 34.4033 34.5879 27.8866 34.5912 19.8783C34.5929 15.9983 33.0829 12.3499 30.3396 9.60326Z" stroke="#019646" stroke-width="2" stroke-linecap="round" stroke-linejoin="round"/>
<path d="M21.8252 22.5998L22.5019 21.9282C23.1235 21.3115 24.1069 21.2332 24.8235 21.7365C25.5169 22.2232 26.1435 22.6598 26.7269 23.0665C27.6535 23.7098 27.7652 25.0298 26.9669 25.8265L26.3685 26.4248" stroke="#019646" stroke-width="2" stroke-linecap="round" stroke-linejoin="round"/>
<path d="M13.5752 13.6317L14.1735 13.0333C14.9702 12.2367 16.2902 12.3483 16.9335 13.2733C17.3385 13.8567 17.7752 14.4833 18.2635 15.1767C18.7669 15.8933 18.6902 16.8767 18.0719 17.4983L17.4002 18.175" stroke="#019646" stroke-width="2" stroke-linecap="round" stroke-linejoin="round"/>
<path d="M26.3682 26.4252C23.8999 28.8819 19.7516 26.7952 16.4766 23.5186" stroke="#019646" stroke-width="2" stroke-linecap="round" stroke-linejoin="round"/>
<path d="M16.4801 23.5235C13.2051 20.2468 11.1184 16.1002 13.5751 13.6318" stroke="#019646" stroke-width="2" stroke-linecap="round" stroke-linejoin="round"/>
<path d="M17.4004 18.1748C17.9321 19.0131 18.6137 19.8431 19.3837 20.6131L19.3871 20.6165C20.1571 21.3865 20.9871 22.0681 21.8254 22.5998" stroke="#019646" stroke-width="2" stroke-linecap="round" stroke-linejoin="round"/>
</g>
<defs>
<clipPath id="clip0_207_2430">
<rect width="40" height="40" fill="white"/>
</clipPath>
</defs>
</svg>
